<svg width="527" height="166" viewBox="0 0 527 166" fill="none" xmlns="http://www.w3.org/2000/svg">
<g clip-path="url(#clip0_52_81)">
<rect width="527" height="166" fill="white"/>
<g filter="url(#filter0_d_52_81)">
<rect x="18" y="11" width="497" height="131" rx="11" stroke="url(#paint0_linear_52_81)" stroke-width="4" shape-rendering="crispEdges"/>
</g>
<path d="M185.952 71.5H182.165C181.941 70.4107 181.549 69.4538 180.989 68.6293C180.439 67.8047 179.767 67.1125 178.973 66.5526C178.19 65.9825 177.319 65.5549 176.362 65.2699C175.405 64.9848 174.408 64.8423 173.369 64.8423C171.476 64.8423 169.761 65.3208 168.223 66.2777C166.696 67.2346 165.48 68.6445 164.574 70.5075C163.678 72.3704 163.23 74.6558 163.23 77.3636C163.23 80.0715 163.678 82.3569 164.574 84.2198C165.48 86.0827 166.696 87.4927 168.223 88.4496C169.761 89.4065 171.476 89.8849 173.369 89.8849C174.408 89.8849 175.405 89.7424 176.362 89.4574C177.319 89.1723 178.19 88.7499 178.973 88.19C179.767 87.6199 180.439 86.9226 180.989 86.098C181.549 85.2633 181.941 84.3063 182.165 83.2273H185.952C185.667 84.8255 185.147 86.2558 184.394 87.5181C183.641 88.7804 182.704 89.8544 181.585 90.7401C180.465 91.6155 179.208 92.2823 177.813 92.7404C176.428 93.1985 174.947 93.4276 173.369 93.4276C170.702 93.4276 168.33 92.776 166.254 91.473C164.177 90.17 162.543 88.3172 161.352 85.9148C160.161 83.5123 159.565 80.6619 159.565 77.3636C159.565 74.0653 160.161 71.215 161.352 68.8125C162.543 66.41 164.177 64.5573 166.254 63.2543C168.33 61.9512 170.702 61.2997 173.369 61.2997C174.947 61.2997 176.428 61.5288 177.813 61.9869C179.208 62.445 180.465 63.1168 181.585 64.0025C182.704 64.878 183.641 65.9469 184.394 67.2092C185.147 68.4613 185.667 69.8916 185.952 71.5ZM195.186 61.7273V93H191.582V61.7273H195.186ZM211.315 93.4886C209.198 93.4886 207.34 92.9847 205.741 91.9769C204.153 90.9691 202.911 89.5592 202.016 87.7472C201.13 85.9351 200.687 83.8177 200.687 81.3949C200.687 78.9517 201.13 76.819 202.016 74.9968C202.911 73.1746 204.153 71.7596 205.741 70.7518C207.34 69.744 209.198 69.2401 211.315 69.2401C213.432 69.2401 215.285 69.744 216.873 70.7518C218.471 71.7596 219.713 73.1746 220.599 74.9968C221.495 76.819 221.943 78.9517 221.943 81.3949C221.943 83.8177 221.495 85.9351 220.599 87.7472C219.713 89.5592 218.471 90.9691 216.873 91.9769C215.285 92.9847 213.432 93.4886 211.315 93.4886ZM211.315 90.2514C212.923 90.2514 214.247 89.8391 215.285 89.0146C216.324 88.19 217.092 87.1058 217.591 85.7621C218.09 84.4183 218.339 82.9626 218.339 81.3949C218.339 79.8272 218.09 78.3664 217.591 77.0124C217.092 75.6585 216.324 74.5642 215.285 73.7294C214.247 72.8946 212.923 72.4773 211.315 72.4773C209.707 72.4773 208.383 72.8946 207.345 73.7294C206.306 74.5642 205.538 75.6585 205.039 77.0124C204.54 78.3664 204.291 79.8272 204.291 81.3949C204.291 82.9626 204.54 84.4183 205.039 85.7621C205.538 87.1058 206.306 88.19 207.345 89.0146C208.383 89.8391 209.707 90.2514 211.315 90.2514ZM244.057 74.7983L240.82 75.7145C240.617 75.175 240.316 74.6507 239.919 74.1417C239.532 73.6225 239.003 73.195 238.331 72.859C237.659 72.5231 236.799 72.3551 235.751 72.3551C234.315 72.3551 233.119 72.686 232.162 73.3477C231.215 73.9992 230.742 74.8288 230.742 75.8366C230.742 76.7325 231.068 77.44 231.719 77.9592C232.371 78.4783 233.389 78.911 234.773 79.2571L238.255 80.1122C240.352 80.6212 241.915 81.4 242.943 82.4485C243.971 83.4869 244.485 84.8255 244.485 86.4645C244.485 87.8082 244.098 89.0095 243.324 90.0682C242.561 91.1269 241.492 91.9616 240.118 92.5724C238.744 93.1832 237.145 93.4886 235.323 93.4886C232.931 93.4886 230.951 92.9695 229.383 91.9311C227.815 90.8928 226.823 89.3759 226.405 87.3807L229.826 86.5256C230.152 87.7879 230.768 88.7346 231.674 89.3658C232.59 89.9969 233.786 90.3125 235.262 90.3125C236.942 90.3125 238.275 89.9562 239.263 89.2436C240.26 88.5208 240.759 87.6555 240.759 86.6477C240.759 85.8333 240.474 85.1513 239.904 84.6016C239.334 84.0417 238.458 83.6243 237.278 83.3494L233.369 82.4332C231.221 81.9242 229.643 81.1353 228.635 80.0664C227.637 78.9873 227.138 77.6385 227.138 76.0199C227.138 74.6965 227.51 73.5258 228.253 72.5078C229.006 71.4898 230.03 70.6907 231.322 70.1104C232.625 69.5302 234.101 69.2401 235.751 69.2401C238.072 69.2401 239.894 69.7491 241.217 70.767C242.551 71.785 243.498 73.1288 244.057 74.7983ZM259.743 93.4886C257.483 93.4886 255.534 92.9898 253.895 91.9922C252.266 90.9844 251.009 89.5795 250.123 87.7777C249.248 85.9657 248.81 83.8584 248.81 81.456C248.81 79.0535 249.248 76.9361 250.123 75.1037C251.009 73.2611 252.241 71.8258 253.819 70.7976C255.407 69.7592 257.26 69.2401 259.377 69.2401C260.599 69.2401 261.805 69.4437 262.996 69.8509C264.187 70.258 265.271 70.9197 266.248 71.8359C267.226 72.742 268.004 73.9432 268.585 75.4396C269.165 76.9361 269.455 78.7786 269.455 80.9673V82.4943H251.376V79.3793H265.79C265.79 78.0559 265.526 76.875 264.996 75.8366C264.477 74.7983 263.734 73.9788 262.767 73.3782C261.81 72.7776 260.68 72.4773 259.377 72.4773C257.942 72.4773 256.7 72.8336 255.651 73.5462C254.613 74.2486 253.814 75.1648 253.254 76.2947C252.694 77.4247 252.414 78.6361 252.414 79.929V82.0057C252.414 83.777 252.719 85.2785 253.33 86.5103C253.951 87.7319 254.811 88.6634 255.911 89.3047C257.01 89.9358 258.288 90.2514 259.743 90.2514C260.69 90.2514 261.545 90.1191 262.309 89.8544C263.082 89.5795 263.749 89.1723 264.309 88.6328C264.869 88.0831 265.302 87.401 265.607 86.5866L269.089 87.5639C268.722 88.7448 268.106 89.7831 267.241 90.679C266.376 91.5646 265.307 92.2569 264.034 92.7557C262.762 93.2443 261.331 93.4886 259.743 93.4886ZM285.809 65.0866V61.7273H309.264V65.0866H299.43V93H295.643V65.0866H285.809ZM314.62 93V69.5455H318.223V93H314.62ZM316.452 65.6364C315.75 65.6364 315.144 65.3971 314.635 64.9187C314.136 64.4402 313.887 63.8651 313.887 63.1932C313.887 62.5213 314.136 61.9461 314.635 61.4677C315.144 60.9892 315.75 60.75 316.452 60.75C317.154 60.75 317.755 60.9892 318.254 61.4677C318.763 61.9461 319.017 62.5213 319.017 63.1932C319.017 63.8651 318.763 64.4402 318.254 64.9187C317.755 65.3971 317.154 65.6364 316.452 65.6364ZM334.352 93.4886C332.153 93.4886 330.26 92.9695 328.672 91.9311C327.084 90.8928 325.862 89.4625 325.007 87.6403C324.152 85.8181 323.724 83.7363 323.724 81.3949C323.724 79.0128 324.162 76.9106 325.037 75.0884C325.923 73.256 327.155 71.8258 328.733 70.7976C330.321 69.7592 332.174 69.2401 334.291 69.2401C335.94 69.2401 337.426 69.5455 338.75 70.1562C340.073 70.767 341.157 71.6222 342.002 72.7216C342.847 73.821 343.372 75.1037 343.575 76.5696H339.971C339.697 75.5007 339.086 74.554 338.139 73.7294C337.202 72.8946 335.94 72.4773 334.352 72.4773C332.947 72.4773 331.715 72.8437 330.657 73.5767C329.608 74.2995 328.789 75.3226 328.198 76.646C327.618 77.9592 327.328 79.5014 327.328 81.2727C327.328 83.0848 327.613 84.6626 328.183 86.0064C328.763 87.3501 329.578 88.3936 330.626 89.1367C331.685 89.8799 332.927 90.2514 334.352 90.2514C335.289 90.2514 336.139 90.0885 336.902 89.7628C337.666 89.437 338.312 88.9688 338.841 88.358C339.371 87.7472 339.747 87.0142 339.971 86.1591H343.575C343.372 87.5436 342.868 88.7906 342.063 89.9002C341.269 90.9996 340.216 91.8751 338.903 92.5266C337.599 93.168 336.083 93.4886 334.352 93.4886ZM352.203 84.4489L352.142 79.9901H352.874L363.136 69.5455H367.595L356.661 80.6009H356.356L352.203 84.4489ZM348.843 93V61.7273H352.447V93H348.843ZM363.747 93L354.585 81.3949L357.15 78.8906L368.328 93H363.747ZM381.101 93.4886C378.841 93.4886 376.891 92.9898 375.252 91.9922C373.624 90.9844 372.366 89.5795 371.481 87.7777C370.605 85.9657 370.168 83.8584 370.168 81.456C370.168 79.0535 370.605 76.9361 371.481 75.1037C372.366 73.2611 373.598 71.8258 375.176 70.7976C376.764 69.7592 378.617 69.2401 380.734 69.2401C381.956 69.2401 383.162 69.4437 384.353 69.8509C385.544 70.258 386.629 70.9197 387.606 71.8359C388.583 72.742 389.362 73.9432 389.942 75.4396C390.522 76.9361 390.812 78.7786 390.812 80.9673V82.4943H372.733V79.3793H387.148C387.148 78.0559 386.883 76.875 386.354 75.8366C385.835 74.7983 385.091 73.9788 384.124 73.3782C383.167 72.7776 382.037 72.4773 380.734 72.4773C379.299 72.4773 378.057 72.8336 377.009 73.5462C375.97 74.2486 375.171 75.1648 374.611 76.2947C374.051 77.4247 373.771 78.6361 373.771 79.929V82.0057C373.771 83.777 374.077 85.2785 374.688 86.5103C375.308 87.7319 376.169 88.6634 377.268 89.3047C378.368 89.9358 379.645 90.2514 381.101 90.2514C382.048 90.2514 382.903 90.1191 383.666 89.8544C384.44 89.5795 385.107 89.1723 385.667 88.6328C386.226 88.0831 386.659 87.401 386.964 86.5866L390.446 87.5639C390.08 88.7448 389.464 89.7831 388.598 90.679C387.733 91.5646 386.664 92.2569 385.392 92.7557C384.119 93.2443 382.689 93.4886 381.101 93.4886ZM406.495 69.5455V72.5994H394.34V69.5455H406.495ZM397.882 63.9261H401.486V86.2812C401.486 87.2992 401.634 88.0627 401.929 88.5717C402.234 89.0705 402.621 89.4065 403.089 89.5795C403.568 89.7424 404.072 89.8239 404.601 89.8239C404.998 89.8239 405.324 89.8035 405.578 89.7628C405.833 89.7119 406.037 89.6712 406.189 89.6406L406.922 92.8778C406.678 92.9695 406.337 93.0611 405.899 93.1527C405.461 93.2545 404.907 93.3054 404.235 93.3054C403.217 93.3054 402.219 93.0865 401.242 92.6488C400.275 92.2111 399.471 91.5443 398.829 90.6484C398.198 89.7526 397.882 88.6226 397.882 87.2585V63.9261Z" fill="#5F7BC9"/>
<circle cx="95.5" cy="77.5" r="29.5" stroke="#5F7BC9" stroke-width="4"/>
<path d="M81 92L110 63" stroke="#5F7BC9" stroke-width="4" stroke-linecap="round"/>
<path d="M110 92L81 63" stroke="#5F7BC9" stroke-width="4" stroke-linecap="round"/>
</g>
<defs>
<filter id="filter0_d_52_81" x="-9" y="-6" width="541" height="175" filterUnits="userSpaceOnUse" color-interpolation-filters="sRGB">
<feFlood flood-opacity="0" result="BackgroundImageFix"/>
<feColorMatrix in="SourceAlpha" type="matrix" values="0 0 0 0 0 0 0 0 0 0 0 0 0 0 0 0 0 0 127 0" result="hardAlpha"/>
<feMorphology radius="5" operator="dilate" in="SourceAlpha" result="effect1_dropShadow_52_81"/>
<feOffset dx="-5" dy="5"/>
<feGaussianBlur stdDeviation="7.5"/>
<feComposite in2="hardAlpha" operator="out"/>
<feColorMatrix type="matrix" values="0 0 0 0 0.779423 0 0 0 0 0.85087 0 0 0 0 0.927245 0 0 0 0.55 0"/>
<feBlend mode="normal" in2="BackgroundImageFix" result="effect1_dropShadow_52_81"/>
<feBlend mode="normal" in="SourceGraphic" in2="effect1_dropShadow_52_81" result="shape"/>
</filter>
<linearGradient id="paint0_linear_52_81" x1="556" y1="85" x2="-21" y2="-24" gradientUnits="userSpaceOnUse">
<stop stop-color="#EEBFDF"/>
<stop offset="0.502994" stop-color="#7D77EC"/>
<stop offset="1" stop-color="#90F3F4"/>
</linearGradient>
<clipPath id="clip0_52_81">
<rect width="527" height="166" fill="white"/>
</clipPath>
</defs>
</svg>
