<svg width="527" height="166" viewBox="0 0 527 166" fill="none" xmlns="http://www.w3.org/2000/svg">
<g filter="url(#filter0_d_1_12)">
<rect x="18" y="11" width="497" height="131" rx="11" stroke="url(#paint0_linear_1_12)" stroke-width="4" shape-rendering="crispEdges"/>
</g>
<path d="M149.787 93V61.7273H160.72C162.899 61.7273 164.695 62.1039 166.11 62.8572C167.525 63.6004 168.579 64.6031 169.271 65.8654C169.964 67.1175 170.31 68.5071 170.31 70.0341C170.31 71.3778 170.07 72.4875 169.592 73.3629C169.124 74.2384 168.503 74.9306 167.729 75.4396C166.966 75.9486 166.136 76.3253 165.24 76.5696V76.875C166.197 76.9361 167.159 77.272 168.126 77.8828C169.093 78.4936 169.902 79.3691 170.554 80.5092C171.205 81.6494 171.531 83.044 171.531 84.6932C171.531 86.2609 171.175 87.6708 170.462 88.9229C169.75 90.1751 168.625 91.1676 167.088 91.9006C165.551 92.6335 163.55 93 161.087 93H149.787ZM153.574 89.6406H161.087C163.56 89.6406 165.316 89.1622 166.355 88.2053C167.403 87.2382 167.928 86.0675 167.928 84.6932C167.928 83.6345 167.658 82.6572 167.118 81.7614C166.579 80.8554 165.81 80.1326 164.812 79.593C163.815 79.0433 162.634 78.7685 161.27 78.7685H153.574V89.6406ZM153.574 75.4702H160.598C161.738 75.4702 162.766 75.2462 163.683 74.7983C164.609 74.3504 165.342 73.7192 165.881 72.9048C166.431 72.0904 166.706 71.1335 166.706 70.0341C166.706 68.6598 166.228 67.4942 165.271 66.5373C164.314 65.5702 162.797 65.0866 160.72 65.0866H153.574V75.4702ZM184.167 93.5497C182.681 93.5497 181.332 93.2698 180.121 92.7099C178.909 92.1398 177.947 91.3203 177.235 90.2514C176.522 89.1723 176.166 87.8693 176.166 86.3423C176.166 84.9986 176.43 83.9093 176.96 83.0746C177.489 82.2296 178.197 81.5679 179.082 81.0895C179.968 80.611 180.945 80.2547 182.014 80.0206C183.093 79.7763 184.177 79.5829 185.267 79.4403C186.692 79.2571 187.847 79.1197 188.733 79.0281C189.629 78.9263 190.28 78.7583 190.687 78.5241C191.105 78.29 191.313 77.8828 191.313 77.3026V77.1804C191.313 75.6738 190.901 74.5031 190.077 73.6683C189.262 72.8336 188.025 72.4162 186.366 72.4162C184.646 72.4162 183.297 72.7929 182.319 73.5462C181.342 74.2995 180.655 75.1037 180.258 75.9588L176.838 74.7372C177.448 73.312 178.263 72.2024 179.281 71.4084C180.309 70.6042 181.429 70.0443 182.64 69.7287C183.862 69.4029 185.063 69.2401 186.244 69.2401C186.997 69.2401 187.862 69.3317 188.84 69.5149C189.827 69.688 190.779 70.0494 191.695 70.5991C192.622 71.1488 193.39 71.9785 194.001 73.0881C194.612 74.1977 194.917 75.6839 194.917 77.5469V93H191.313V89.8239H191.13C190.886 90.3329 190.479 90.8775 189.909 91.4577C189.338 92.038 188.58 92.5317 187.633 92.9389C186.687 93.3461 185.531 93.5497 184.167 93.5497ZM184.717 90.3125C186.142 90.3125 187.343 90.0326 188.32 89.4727C189.308 88.9128 190.051 88.19 190.55 87.3043C191.059 86.4187 191.313 85.4872 191.313 84.5099V81.2116C191.161 81.3949 190.825 81.5629 190.306 81.7156C189.797 81.8581 189.206 81.9853 188.534 82.0973C187.873 82.1991 187.226 82.2907 186.595 82.3722C185.974 82.4434 185.47 82.5045 185.083 82.5554C184.147 82.6776 183.271 82.8761 182.457 83.1509C181.653 83.4156 181.001 83.8177 180.502 84.3572C180.014 84.8866 179.769 85.6094 179.769 86.5256C179.769 87.7777 180.233 88.7244 181.159 89.3658C182.095 89.9969 183.281 90.3125 184.717 90.3125ZM211.023 93.4886C208.824 93.4886 206.931 92.9695 205.343 91.9311C203.755 90.8928 202.533 89.4625 201.678 87.6403C200.823 85.8181 200.395 83.7363 200.395 81.3949C200.395 79.0128 200.833 76.9106 201.708 75.0884C202.594 73.256 203.826 71.8258 205.404 70.7976C206.992 69.7592 208.844 69.2401 210.962 69.2401C212.611 69.2401 214.097 69.5455 215.421 70.1562C216.744 70.767 217.828 71.6222 218.673 72.7216C219.518 73.821 220.042 75.1037 220.246 76.5696H216.642C216.367 75.5007 215.757 74.554 214.81 73.7294C213.873 72.8946 212.611 72.4773 211.023 72.4773C209.618 72.4773 208.386 72.8437 207.328 73.5767C206.279 74.2995 205.46 75.3226 204.869 76.646C204.289 77.9592 203.999 79.5014 203.999 81.2727C203.999 83.0848 204.284 84.6626 204.854 86.0064C205.434 87.3501 206.249 88.3936 207.297 89.1367C208.356 89.8799 209.598 90.2514 211.023 90.2514C211.96 90.2514 212.81 90.0885 213.573 89.7628C214.337 89.437 214.983 88.9688 215.512 88.358C216.042 87.7472 216.418 87.0142 216.642 86.1591H220.246C220.042 87.5436 219.539 88.7906 218.734 89.9002C217.94 90.9996 216.887 91.8751 215.573 92.5266C214.27 93.168 212.754 93.4886 211.023 93.4886ZM228.873 84.4489L228.812 79.9901H229.545L239.807 69.5455H244.266L233.332 80.6009H233.027L228.873 84.4489ZM225.514 93V61.7273H229.118V93H225.514ZM240.418 93L231.256 81.3949L233.821 78.8906L244.998 93H240.418ZM271.198 69.5455V72.5994H259.043V69.5455H271.198ZM262.586 63.9261H266.189V86.2812C266.189 87.2992 266.337 88.0627 266.632 88.5717C266.938 89.0705 267.324 89.4065 267.793 89.5795C268.271 89.7424 268.775 89.8239 269.304 89.8239C269.701 89.8239 270.027 89.8035 270.282 89.7628C270.536 89.7119 270.74 89.6712 270.892 89.6406L271.625 92.8778C271.381 92.9695 271.04 93.0611 270.602 93.1527C270.165 93.2545 269.61 93.3054 268.938 93.3054C267.92 93.3054 266.922 93.0865 265.945 92.6488C264.978 92.2111 264.174 91.5443 263.532 90.6484C262.901 89.7526 262.586 88.6226 262.586 87.2585V63.9261ZM285.895 93.4886C283.778 93.4886 281.92 92.9847 280.322 91.9769C278.733 90.9691 277.492 89.5592 276.596 87.7472C275.71 85.9351 275.267 83.8177 275.267 81.3949C275.267 78.9517 275.71 76.819 276.596 74.9968C277.492 73.1746 278.733 71.7596 280.322 70.7518C281.92 69.744 283.778 69.2401 285.895 69.2401C288.012 69.2401 289.865 69.744 291.453 70.7518C293.052 71.7596 294.294 73.1746 295.179 74.9968C296.075 76.819 296.523 78.9517 296.523 81.3949C296.523 83.8177 296.075 85.9351 295.179 87.7472C294.294 89.5592 293.052 90.9691 291.453 91.9769C289.865 92.9847 288.012 93.4886 285.895 93.4886ZM285.895 90.2514C287.503 90.2514 288.827 89.8391 289.865 89.0146C290.904 88.19 291.672 87.1058 292.171 85.7621C292.67 84.4183 292.919 82.9626 292.919 81.3949C292.919 79.8272 292.67 78.3664 292.171 77.0124C291.672 75.6585 290.904 74.5642 289.865 73.7294C288.827 72.8946 287.503 72.4773 285.895 72.4773C284.287 72.4773 282.963 72.8946 281.925 73.7294C280.887 74.5642 280.118 75.6585 279.619 77.0124C279.12 78.3664 278.871 79.8272 278.871 81.3949C278.871 82.9626 279.12 84.4183 279.619 85.7621C280.118 87.1058 280.887 88.19 281.925 89.0146C282.963 89.8391 284.287 90.2514 285.895 90.2514ZM314.118 93V69.5455H317.599V73.0881H317.843C318.271 71.9276 319.045 70.9859 320.165 70.2631C321.284 69.5404 322.547 69.179 323.951 69.179C324.216 69.179 324.547 69.1841 324.944 69.1942C325.341 69.2044 325.641 69.2197 325.845 69.2401V72.9048C325.723 72.8743 325.443 72.8285 325.005 72.7674C324.578 72.6961 324.124 72.6605 323.646 72.6605C322.506 72.6605 321.488 72.8997 320.592 73.3782C319.706 73.8465 319.004 74.498 318.485 75.3327C317.976 76.1573 317.721 77.099 317.721 78.1577V93H314.118ZM339.237 93.4886C336.977 93.4886 335.027 92.9898 333.388 91.9922C331.759 90.9844 330.502 89.5795 329.617 87.7777C328.741 85.9657 328.303 83.8584 328.303 81.456C328.303 79.0535 328.741 76.9361 329.617 75.1037C330.502 73.2611 331.734 71.8258 333.312 70.7976C334.9 69.7592 336.753 69.2401 338.87 69.2401C340.092 69.2401 341.298 69.4437 342.489 69.8509C343.68 70.258 344.764 70.9197 345.742 71.8359C346.719 72.742 347.498 73.9432 348.078 75.4396C348.658 76.9361 348.948 78.7786 348.948 80.9673V82.4943H330.869V79.3793H345.283C345.283 78.0559 345.019 76.875 344.489 75.8366C343.97 74.7983 343.227 73.9788 342.26 73.3782C341.303 72.7776 340.173 72.4773 338.87 72.4773C337.435 72.4773 336.193 72.8336 335.144 73.5462C334.106 74.2486 333.307 75.1648 332.747 76.2947C332.187 77.4247 331.907 78.6361 331.907 79.929V82.0057C331.907 83.777 332.212 85.2785 332.823 86.5103C333.444 87.7319 334.304 88.6634 335.404 89.3047C336.503 89.9358 337.781 90.2514 339.237 90.2514C340.183 90.2514 341.038 90.1191 341.802 89.8544C342.576 89.5795 343.242 89.1723 343.802 88.6328C344.362 88.0831 344.795 87.401 345.1 86.5866L348.582 87.5639C348.215 88.7448 347.599 89.7831 346.734 90.679C345.869 91.5646 344.8 92.2569 343.527 92.7557C342.255 93.2443 340.825 93.4886 339.237 93.4886ZM354.43 101.795V69.5455H357.912V73.2713H358.339C358.604 72.8641 358.97 72.3449 359.439 71.7138C359.917 71.0724 360.599 70.5024 361.485 70.0036C362.381 69.4946 363.592 69.2401 365.119 69.2401C367.094 69.2401 368.835 69.7338 370.341 70.7212C371.848 71.7087 373.024 73.1084 373.869 74.9205C374.714 76.7325 375.136 78.8703 375.136 81.3338C375.136 83.8177 374.714 85.9708 373.869 87.793C373.024 89.605 371.853 91.0098 370.357 92.0075C368.86 92.9949 367.135 93.4886 365.18 93.4886C363.674 93.4886 362.467 93.2392 361.561 92.7404C360.655 92.2314 359.958 91.6562 359.469 91.0149C358.981 90.3634 358.604 89.8239 358.339 89.3963H358.034V101.795H354.43ZM357.973 81.2727C357.973 83.044 358.232 84.6067 358.752 85.9606C359.271 87.3043 360.029 88.358 361.027 89.1214C362.024 89.8748 363.246 90.2514 364.691 90.2514C366.198 90.2514 367.455 89.8544 368.463 89.0604C369.481 88.2562 370.245 87.1771 370.754 85.8232C371.273 84.459 371.532 82.9422 371.532 81.2727C371.532 79.6236 371.278 78.1373 370.769 76.8139C370.27 75.4804 369.512 74.4267 368.494 73.6531C367.486 72.8692 366.218 72.4773 364.691 72.4773C363.226 72.4773 361.994 72.8488 360.996 73.592C359.999 74.3249 359.245 75.3531 358.736 76.6765C358.227 77.9897 357.973 79.5218 357.973 81.2727ZM390.162 93.4886C388.044 93.4886 386.186 92.9847 384.588 91.9769C383 90.9691 381.758 89.5592 380.862 87.7472C379.977 85.9351 379.534 83.8177 379.534 81.3949C379.534 78.9517 379.977 76.819 380.862 74.9968C381.758 73.1746 383 71.7596 384.588 70.7518C386.186 69.744 388.044 69.2401 390.162 69.2401C392.279 69.2401 394.132 69.744 395.72 70.7518C397.318 71.7596 398.56 73.1746 399.446 74.9968C400.342 76.819 400.79 78.9517 400.79 81.3949C400.79 83.8177 400.342 85.9351 399.446 87.7472C398.56 89.5592 397.318 90.9691 395.72 91.9769C394.132 92.9847 392.279 93.4886 390.162 93.4886ZM390.162 90.2514C391.77 90.2514 393.093 89.8391 394.132 89.0146C395.17 88.19 395.939 87.1058 396.438 85.7621C396.936 84.4183 397.186 82.9626 397.186 81.3949C397.186 79.8272 396.936 78.3664 396.438 77.0124C395.939 75.6585 395.17 74.5642 394.132 73.7294C393.093 72.8946 391.77 72.4773 390.162 72.4773C388.553 72.4773 387.23 72.8946 386.191 73.7294C385.153 74.5642 384.385 75.6585 383.886 77.0124C383.387 78.3664 383.138 79.8272 383.138 81.3949C383.138 82.9626 383.387 84.4183 383.886 85.7621C384.385 87.1058 385.153 88.19 386.191 89.0146C387.23 89.8391 388.553 90.2514 390.162 90.2514ZM406.29 93V69.5455H409.772V73.0881H410.016C410.444 71.9276 411.218 70.9859 412.337 70.2631C413.457 69.5404 414.719 69.179 416.124 69.179C416.389 69.179 416.72 69.1841 417.117 69.1942C417.514 69.2044 417.814 69.2197 418.018 69.2401V72.9048C417.896 72.8743 417.616 72.8285 417.178 72.7674C416.75 72.6961 416.297 72.6605 415.819 72.6605C414.679 72.6605 413.661 72.8997 412.765 73.3782C411.879 73.8465 411.177 74.498 410.658 75.3327C410.149 76.1573 409.894 77.099 409.894 78.1577V93H406.29ZM433.96 69.5455V72.5994H421.805V69.5455H433.96ZM425.347 63.9261H428.951V86.2812C428.951 87.2992 429.099 88.0627 429.394 88.5717C429.699 89.0705 430.086 89.4065 430.554 89.5795C431.033 89.7424 431.537 89.8239 432.066 89.8239C432.463 89.8239 432.789 89.8035 433.043 89.7628C433.298 89.7119 433.501 89.6712 433.654 89.6406L434.387 92.8778C434.143 92.9695 433.802 93.0611 433.364 93.1527C432.926 93.2545 432.371 93.3054 431.7 93.3054C430.682 93.3054 429.684 93.0865 428.707 92.6488C427.74 92.2111 426.935 91.5443 426.294 90.6484C425.663 89.7526 425.347 88.6226 425.347 87.2585V63.9261ZM455.574 74.7983L452.337 75.7145C452.133 75.175 451.833 74.6507 451.436 74.1417C451.049 73.6225 450.52 73.195 449.848 72.859C449.176 72.5231 448.316 72.3551 447.267 72.3551C445.832 72.3551 444.636 72.686 443.679 73.3477C442.732 73.9992 442.259 74.8288 442.259 75.8366C442.259 76.7325 442.584 77.44 443.236 77.9592C443.887 78.4783 444.905 78.911 446.29 79.2571L449.771 80.1122C451.869 80.6212 453.431 81.4 454.459 82.4485C455.488 83.4869 456.002 84.8255 456.002 86.4645C456.002 87.8082 455.615 89.0095 454.841 90.0682C454.078 91.1269 453.009 91.9616 451.634 92.5724C450.26 93.1832 448.662 93.4886 446.84 93.4886C444.447 93.4886 442.467 92.9695 440.9 91.9311C439.332 90.8928 438.339 89.3759 437.922 87.3807L441.343 86.5256C441.668 87.7879 442.284 88.7346 443.19 89.3658C444.106 89.9969 445.302 90.3125 446.779 90.3125C448.458 90.3125 449.792 89.9562 450.779 89.2436C451.777 88.5208 452.276 87.6555 452.276 86.6477C452.276 85.8333 451.991 85.1513 451.421 84.6016C450.851 84.0417 449.975 83.6243 448.794 83.3494L444.885 82.4332C442.737 81.9242 441.159 81.1353 440.151 80.0664C439.154 78.9873 438.655 77.6385 438.655 76.0199C438.655 74.6965 439.027 73.5258 439.77 72.5078C440.523 71.4898 441.546 70.6907 442.839 70.1104C444.142 69.5302 445.618 69.2401 447.267 69.2401C449.588 69.2401 451.41 69.7491 452.734 70.767C454.067 71.785 455.014 73.1288 455.574 74.7983Z" fill="#5F7BC9"/>
<path d="M73.5858 75.5858C72.8047 76.3668 72.8047 77.6332 73.5858 78.4142L86.3137 91.1421C87.0948 91.9232 88.3611 91.9232 89.1421 91.1421C89.9232 90.3611 89.9232 89.0948 89.1421 88.3137L77.8284 77L89.1421 65.6863C89.9232 64.9052 89.9232 63.6389 89.1421 62.8579C88.3611 62.0768 87.0948 62.0768 86.3137 62.8579L73.5858 75.5858ZM121 75L75 75L75 79L121 79L121 75Z" fill="#5F7BC9"/>
<defs>
<filter id="filter0_d_1_12" x="-9" y="-6" width="541" height="175" filterUnits="userSpaceOnUse" color-interpolation-filters="sRGB">
<feFlood flood-opacity="0" result="BackgroundImageFix"/>
<feColorMatrix in="SourceAlpha" type="matrix" values="0 0 0 0 0 0 0 0 0 0 0 0 0 0 0 0 0 0 127 0" result="hardAlpha"/>
<feMorphology radius="5" operator="dilate" in="SourceAlpha" result="effect1_dropShadow_1_12"/>
<feOffset dx="-5" dy="5"/>
<feGaussianBlur stdDeviation="7.5"/>
<feComposite in2="hardAlpha" operator="out"/>
<feColorMatrix type="matrix" values="0 0 0 0 0.779423 0 0 0 0 0.85087 0 0 0 0 0.927245 0 0 0 0.55 0"/>
<feBlend mode="normal" in2="BackgroundImageFix" result="effect1_dropShadow_1_12"/>
<feBlend mode="normal" in="SourceGraphic" in2="effect1_dropShadow_1_12" result="shape"/>
</filter>
<linearGradient id="paint0_linear_1_12" x1="556" y1="85" x2="-21" y2="-24" gradientUnits="userSpaceOnUse">
<stop stop-color="#EEBFDF"/>
<stop offset="0.502994" stop-color="#7D77EC"/>
<stop offset="1" stop-color="#90F3F4"/>
</linearGradient>
</defs>
</svg>
