<svg width="527" height="166" viewBox="0 0 527 166" fill="none" xmlns="http://www.w3.org/2000/svg">
<g filter="url(#filter0_d_6_33)">
<rect x="18" y="11" width="497" height="131" rx="11" stroke="url(#paint0_linear_6_33)" stroke-width="4" shape-rendering="crispEdges"/>
</g>
<path d="M241.889 69.5455C241.706 67.9981 240.963 66.7969 239.66 65.9418C238.357 65.0866 236.759 64.6591 234.865 64.6591C233.481 64.6591 232.269 64.883 231.231 65.331C230.203 65.7789 229.398 66.3948 228.818 67.1786C228.248 67.9625 227.963 68.8532 227.963 69.8509C227.963 70.6856 228.162 71.4033 228.559 72.0039C228.966 72.5943 229.485 73.0881 230.116 73.4851C230.747 73.8719 231.409 74.1926 232.101 74.4471C232.793 74.6914 233.43 74.8899 234.01 75.0426L237.186 75.8977C238 76.1115 238.906 76.4067 239.904 76.7834C240.912 77.16 241.874 77.6741 242.79 78.3256C243.717 78.967 244.48 79.7915 245.081 80.7994C245.681 81.8072 245.982 83.044 245.982 84.5099C245.982 86.1998 245.539 87.7268 244.653 89.0909C243.778 90.455 242.495 91.5392 240.805 92.3434C239.125 93.1476 237.084 93.5497 234.682 93.5497C232.442 93.5497 230.503 93.1883 228.864 92.4656C227.235 91.7428 225.953 90.735 225.016 89.4421C224.09 88.1493 223.565 86.6477 223.443 84.9375H227.352C227.454 86.1184 227.851 87.0956 228.543 87.8693C229.246 88.6328 230.131 89.2029 231.2 89.5795C232.279 89.946 233.44 90.1293 234.682 90.1293C236.127 90.1293 237.425 89.8951 238.576 89.4268C239.726 88.9484 240.637 88.2867 241.309 87.4418C241.981 86.5866 242.317 85.589 242.317 84.4489C242.317 83.4105 242.027 82.5656 241.446 81.9141C240.866 81.2625 240.103 80.7332 239.156 80.326C238.209 79.9188 237.186 79.5625 236.087 79.2571L232.239 78.1577C229.795 77.4553 227.861 76.4525 226.436 75.1495C225.011 73.8465 224.298 72.1413 224.298 70.0341C224.298 68.2831 224.772 66.7562 225.718 65.4531C226.675 64.1399 227.958 63.1219 229.566 62.3991C231.185 61.6662 232.992 61.2997 234.987 61.2997C237.003 61.2997 238.795 61.6611 240.362 62.3839C241.93 63.0965 243.172 64.0737 244.088 65.3157C245.014 66.5576 245.503 67.9676 245.554 69.5455H241.889ZM251.719 93V69.5455H255.323V93H251.719ZM253.552 65.6364C252.849 65.6364 252.243 65.3971 251.734 64.9187C251.236 64.4402 250.986 63.8651 250.986 63.1932C250.986 62.5213 251.236 61.9461 251.734 61.4677C252.243 60.9892 252.849 60.75 253.552 60.75C254.254 60.75 254.855 60.9892 255.353 61.4677C255.862 61.9461 256.117 62.5213 256.117 63.1932C256.117 63.8651 255.862 64.4402 255.353 64.9187C254.855 65.3971 254.254 65.6364 253.552 65.6364ZM271.391 102.284C269.65 102.284 268.153 102.06 266.901 101.612C265.649 101.174 264.606 100.594 263.771 99.8714C262.946 99.1589 262.29 98.3954 261.801 97.581L264.672 95.5653C264.998 95.9929 265.41 96.4815 265.909 97.0312C266.408 97.5911 267.09 98.0747 267.955 98.4819C268.83 98.8993 269.976 99.108 271.391 99.108C273.284 99.108 274.847 98.6499 276.078 97.7337C277.31 96.8175 277.926 95.3821 277.926 93.4276V88.6634H277.621C277.356 89.0909 276.979 89.6203 276.491 90.2514C276.012 90.8724 275.32 91.4272 274.414 91.9158C273.518 92.3943 272.307 92.6335 270.78 92.6335C268.886 92.6335 267.186 92.1856 265.68 91.2898C264.183 90.3939 262.997 89.0909 262.122 87.3807C261.257 85.6705 260.824 83.5937 260.824 81.1506C260.824 78.7481 261.246 76.6561 262.091 74.8746C262.936 73.083 264.112 71.6985 265.619 70.7212C267.125 69.7338 268.866 69.2401 270.841 69.2401C272.368 69.2401 273.579 69.4946 274.475 70.0036C275.381 70.5024 276.073 71.0724 276.552 71.7138C277.04 72.3449 277.417 72.8641 277.682 73.2713H278.048V69.5455H281.53V93.6719C281.53 95.6875 281.072 97.3265 280.156 98.5888C279.25 99.8613 278.028 100.793 276.491 101.383C274.964 101.984 273.264 102.284 271.391 102.284ZM271.268 89.3963C272.714 89.3963 273.936 89.0655 274.933 88.4038C275.931 87.7421 276.689 86.7902 277.208 85.5483C277.728 84.3063 277.987 82.8201 277.987 81.0895C277.987 79.3996 277.733 77.9083 277.224 76.6154C276.715 75.3226 275.961 74.3097 274.964 73.5767C273.966 72.8437 272.734 72.4773 271.268 72.4773C269.741 72.4773 268.469 72.8641 267.451 73.6378C266.443 74.4115 265.685 75.4498 265.176 76.7528C264.677 78.0559 264.428 79.5014 264.428 81.0895C264.428 82.7183 264.682 84.1587 265.191 85.4109C265.71 86.6528 266.474 87.6301 267.482 88.3427C268.5 89.0451 269.762 89.3963 271.268 89.3963ZM291.73 78.8906V93H288.126V69.5455H291.608V73.2102H291.913C292.463 72.0192 293.298 71.0623 294.418 70.3395C295.537 69.6065 296.983 69.2401 298.754 69.2401C300.342 69.2401 301.732 69.5658 302.923 70.2173C304.114 70.8587 305.04 71.8359 305.702 73.1491C306.364 74.4522 306.695 76.1013 306.695 78.0966V93H303.091V78.3409C303.091 76.4983 302.612 75.063 301.656 74.0348C300.699 72.9964 299.385 72.4773 297.716 72.4773C296.566 72.4773 295.537 72.7267 294.631 73.2255C293.736 73.7243 293.028 74.4522 292.509 75.4091C291.99 76.366 291.73 77.5265 291.73 78.8906ZM352.248 77.3636C352.248 80.6619 351.653 83.5123 350.462 85.9148C349.271 88.3172 347.637 90.17 345.56 91.473C343.484 92.776 341.112 93.4276 338.445 93.4276C335.777 93.4276 333.405 92.776 331.329 91.473C329.252 90.17 327.618 88.3172 326.427 85.9148C325.236 83.5123 324.641 80.6619 324.641 77.3636C324.641 74.0653 325.236 71.215 326.427 68.8125C327.618 66.41 329.252 64.5573 331.329 63.2543C333.405 61.9512 335.777 61.2997 338.445 61.2997C341.112 61.2997 343.484 61.9512 345.56 63.2543C347.637 64.5573 349.271 66.41 350.462 68.8125C351.653 71.215 352.248 74.0653 352.248 77.3636ZM348.584 77.3636C348.584 74.6558 348.131 72.3704 347.225 70.5075C346.329 68.6445 345.112 67.2346 343.575 66.2777C342.048 65.3208 340.338 64.8423 338.445 64.8423C336.551 64.8423 334.836 65.3208 333.299 66.2777C331.772 67.2346 330.555 68.6445 329.649 70.5075C328.753 72.3704 328.305 74.6558 328.305 77.3636C328.305 80.0715 328.753 82.3569 329.649 84.2198C330.555 86.0827 331.772 87.4927 333.299 88.4496C334.836 89.4065 336.551 89.8849 338.445 89.8849C340.338 89.8849 342.048 89.4065 343.575 88.4496C345.112 87.4927 346.329 86.0827 347.225 84.2198C348.131 82.3569 348.584 80.0715 348.584 77.3636ZM372.909 83.4105V69.5455H376.512V93H372.909V89.0298H372.664C372.115 90.2209 371.259 91.2338 370.099 92.0685C368.938 92.8931 367.473 93.3054 365.701 93.3054C364.235 93.3054 362.932 92.9847 361.792 92.3434C360.652 91.6919 359.756 90.7146 359.105 89.4116C358.453 88.0984 358.127 86.4441 358.127 84.4489V69.5455H361.731V84.2045C361.731 85.9148 362.21 87.2789 363.166 88.2969C364.134 89.3149 365.365 89.8239 366.862 89.8239C367.758 89.8239 368.669 89.5948 369.595 89.1367C370.532 88.6786 371.315 87.9762 371.947 87.0295C372.588 86.0827 372.909 84.8764 372.909 83.4105ZM393.313 69.5455V72.5994H381.158V69.5455H393.313ZM384.701 63.9261H388.305V86.2812C388.305 87.2992 388.452 88.0627 388.747 88.5717C389.053 89.0705 389.44 89.4065 389.908 89.5795C390.386 89.7424 390.89 89.8239 391.42 89.8239C391.817 89.8239 392.142 89.8035 392.397 89.7628C392.651 89.7119 392.855 89.6712 393.008 89.6406L393.741 92.8778C393.496 92.9695 393.155 93.0611 392.718 93.1527C392.28 93.2545 391.725 93.3054 391.053 93.3054C390.035 93.3054 389.037 93.0865 388.06 92.6488C387.093 92.2111 386.289 91.5443 385.648 90.6484C385.016 89.7526 384.701 88.6226 384.701 87.2585V63.9261Z" fill="#5F7BC9"/>
<path d="M130.586 74.5858C129.805 75.3668 129.805 76.6332 130.586 77.4142L143.314 90.1421C144.095 90.9232 145.361 90.9232 146.142 90.1421C146.923 89.3611 146.923 88.0948 146.142 87.3137L134.828 76L146.142 64.6863C146.923 63.9052 146.923 62.6389 146.142 61.8579C145.361 61.0768 144.095 61.0768 143.314 61.8579L130.586 74.5858ZM166 74L132 74L132 78L166 78L166 74Z" fill="#5F7BC9"/>
<line x1="155" y1="68" x2="155" y2="50" stroke="#5F7BC9" stroke-width="4"/>
<line x1="156" y1="52" x2="194" y2="52" stroke="#5F7BC9" stroke-width="4"/>
<line x1="156" y1="101" x2="194" y2="101" stroke="#5F7BC9" stroke-width="4"/>
<line x1="155" y1="103" x2="155" y2="85" stroke="#5F7BC9" stroke-width="4"/>
<line x1="192" y1="103" x2="192" y2="53" stroke="#5F7BC9" stroke-width="4"/>
<defs>
<filter id="filter0_d_6_33" x="-9" y="-6" width="541" height="175" filterUnits="userSpaceOnUse" color-interpolation-filters="sRGB">
<feFlood flood-opacity="0" result="BackgroundImageFix"/>
<feColorMatrix in="SourceAlpha" type="matrix" values="0 0 0 0 0 0 0 0 0 0 0 0 0 0 0 0 0 0 127 0" result="hardAlpha"/>
<feMorphology radius="5" operator="dilate" in="SourceAlpha" result="effect1_dropShadow_6_33"/>
<feOffset dx="-5" dy="5"/>
<feGaussianBlur stdDeviation="7.5"/>
<feComposite in2="hardAlpha" operator="out"/>
<feColorMatrix type="matrix" values="0 0 0 0 0.779423 0 0 0 0 0.85087 0 0 0 0 0.927245 0 0 0 0.55 0"/>
<feBlend mode="normal" in2="BackgroundImageFix" result="effect1_dropShadow_6_33"/>
<feBlend mode="normal" in="SourceGraphic" in2="effect1_dropShadow_6_33" result="shape"/>
</filter>
<linearGradient id="paint0_linear_6_33" x1="556" y1="85" x2="-21" y2="-24" gradientUnits="userSpaceOnUse">
<stop stop-color="#EEBFDF"/>
<stop offset="0.502994" stop-color="#7D77EC"/>
<stop offset="1" stop-color="#90F3F4"/>
</linearGradient>
</defs>
</svg>
