<svg width="527" height="166" viewBox="0 0 527 166" fill="none" xmlns="http://www.w3.org/2000/svg">
<g filter="url(#filter0_d_6_33)">
<rect x="18" y="11" width="497" height="131" rx="11" stroke="url(#paint0_linear_6_33)" stroke-width="4" shape-rendering="crispEdges"/>
</g>
<path d="M163.889 69.5455C163.706 67.9981 162.963 66.7969 161.66 65.9418C160.357 65.0866 158.759 64.6591 156.865 64.6591C155.481 64.6591 154.269 64.883 153.231 65.331C152.203 65.7789 151.398 66.3948 150.818 67.1786C150.248 67.9625 149.963 68.8532 149.963 69.8509C149.963 70.6856 150.162 71.4033 150.559 72.0039C150.966 72.5943 151.485 73.0881 152.116 73.4851C152.747 73.8719 153.409 74.1926 154.101 74.4471C154.793 74.6914 155.43 74.8899 156.01 75.0426L159.186 75.8977C160 76.1115 160.906 76.4067 161.904 76.7834C162.912 77.16 163.874 77.6741 164.79 78.3256C165.717 78.967 166.48 79.7915 167.081 80.7994C167.681 81.8072 167.982 83.044 167.982 84.5099C167.982 86.1998 167.539 87.7268 166.653 89.0909C165.778 90.455 164.495 91.5392 162.805 92.3434C161.125 93.1476 159.084 93.5497 156.682 93.5497C154.442 93.5497 152.503 93.1883 150.864 92.4656C149.235 91.7428 147.953 90.735 147.016 89.4421C146.09 88.1493 145.565 86.6477 145.443 84.9375H149.352C149.454 86.1184 149.851 87.0956 150.543 87.8693C151.246 88.6328 152.131 89.2029 153.2 89.5795C154.279 89.946 155.44 90.1293 156.682 90.1293C158.127 90.1293 159.425 89.8951 160.576 89.4268C161.726 88.9484 162.637 88.2867 163.309 87.4418C163.981 86.5866 164.317 85.589 164.317 84.4489C164.317 83.4105 164.027 82.5656 163.446 81.9141C162.866 81.2625 162.103 80.7332 161.156 80.326C160.209 79.9188 159.186 79.5625 158.087 79.2571L154.239 78.1577C151.795 77.4553 149.861 76.4525 148.436 75.1495C147.011 73.8465 146.298 72.1413 146.298 70.0341C146.298 68.2831 146.772 66.7562 147.718 65.4531C148.675 64.1399 149.958 63.1219 151.566 62.3991C153.185 61.6662 154.992 61.2997 156.987 61.2997C159.003 61.2997 160.795 61.6611 162.362 62.3839C163.93 63.0965 165.172 64.0737 166.088 65.3157C167.014 66.5576 167.503 67.9676 167.554 69.5455H163.889ZM173.719 93V69.5455H177.323V93H173.719ZM175.552 65.6364C174.849 65.6364 174.243 65.3971 173.734 64.9187C173.236 64.4402 172.986 63.8651 172.986 63.1932C172.986 62.5213 173.236 61.9461 173.734 61.4677C174.243 60.9892 174.849 60.75 175.552 60.75C176.254 60.75 176.855 60.9892 177.353 61.4677C177.862 61.9461 178.117 62.5213 178.117 63.1932C178.117 63.8651 177.862 64.4402 177.353 64.9187C176.855 65.3971 176.254 65.6364 175.552 65.6364ZM193.391 102.284C191.65 102.284 190.153 102.06 188.901 101.612C187.649 101.174 186.606 100.594 185.771 99.8714C184.946 99.1589 184.29 98.3954 183.801 97.581L186.672 95.5653C186.998 95.9929 187.41 96.4815 187.909 97.0312C188.408 97.5911 189.09 98.0747 189.955 98.4819C190.83 98.8993 191.976 99.108 193.391 99.108C195.284 99.108 196.847 98.6499 198.078 97.7337C199.31 96.8175 199.926 95.3821 199.926 93.4276V88.6634H199.621C199.356 89.0909 198.979 89.6203 198.491 90.2514C198.012 90.8724 197.32 91.4272 196.414 91.9158C195.518 92.3943 194.307 92.6335 192.78 92.6335C190.886 92.6335 189.186 92.1856 187.68 91.2898C186.183 90.3939 184.997 89.0909 184.122 87.3807C183.257 85.6705 182.824 83.5937 182.824 81.1506C182.824 78.7481 183.246 76.6561 184.091 74.8746C184.936 73.083 186.112 71.6985 187.619 70.7212C189.125 69.7338 190.866 69.2401 192.841 69.2401C194.368 69.2401 195.579 69.4946 196.475 70.0036C197.381 70.5024 198.073 71.0724 198.552 71.7138C199.04 72.3449 199.417 72.8641 199.682 73.2713H200.048V69.5455H203.53V93.6719C203.53 95.6875 203.072 97.3265 202.156 98.5888C201.25 99.8613 200.028 100.793 198.491 101.383C196.964 101.984 195.264 102.284 193.391 102.284ZM193.268 89.3963C194.714 89.3963 195.936 89.0655 196.933 88.4038C197.931 87.7421 198.689 86.7902 199.208 85.5483C199.728 84.3063 199.987 82.8201 199.987 81.0895C199.987 79.3996 199.733 77.9083 199.224 76.6154C198.715 75.3226 197.961 74.3097 196.964 73.5767C195.966 72.8437 194.734 72.4773 193.268 72.4773C191.741 72.4773 190.469 72.8641 189.451 73.6378C188.443 74.4115 187.685 75.4498 187.176 76.7528C186.677 78.0559 186.428 79.5014 186.428 81.0895C186.428 82.7183 186.682 84.1587 187.191 85.4109C187.71 86.6528 188.474 87.6301 189.482 88.3427C190.5 89.0451 191.762 89.3963 193.268 89.3963ZM213.73 78.8906V93H210.126V69.5455H213.608V73.2102H213.913C214.463 72.0192 215.298 71.0623 216.418 70.3395C217.537 69.6065 218.983 69.2401 220.754 69.2401C222.342 69.2401 223.732 69.5658 224.923 70.2173C226.114 70.8587 227.04 71.8359 227.702 73.1491C228.364 74.4522 228.695 76.1013 228.695 78.0966V93H225.091V78.3409C225.091 76.4983 224.612 75.063 223.656 74.0348C222.699 72.9964 221.385 72.4773 219.716 72.4773C218.566 72.4773 217.537 72.7267 216.631 73.2255C215.736 73.7243 215.028 74.4522 214.509 75.4091C213.99 76.366 213.73 77.5265 213.73 78.8906ZM247.373 93V69.5455H250.977V93H247.373ZM249.206 65.6364C248.503 65.6364 247.898 65.3971 247.389 64.9187C246.89 64.4402 246.641 63.8651 246.641 63.1932C246.641 62.5213 246.89 61.9461 247.389 61.4677C247.898 60.9892 248.503 60.75 249.206 60.75C249.908 60.75 250.509 60.9892 251.008 61.4677C251.517 61.9461 251.771 62.5213 251.771 63.1932C251.771 63.8651 251.517 64.4402 251.008 64.9187C250.509 65.3971 249.908 65.6364 249.206 65.6364ZM261.181 78.8906V93H257.578V69.5455H261.059V73.2102H261.365C261.914 72.0192 262.749 71.0623 263.869 70.3395C264.989 69.6065 266.434 69.2401 268.205 69.2401C269.794 69.2401 271.183 69.5658 272.374 70.2173C273.565 70.8587 274.492 71.8359 275.153 73.1491C275.815 74.4522 276.146 76.1013 276.146 78.0966V93H272.542V78.3409C272.542 76.4983 272.064 75.063 271.107 74.0348C270.15 72.9964 268.837 72.4773 267.167 72.4773C266.017 72.4773 264.989 72.7267 264.083 73.2255C263.187 73.7243 262.479 74.4522 261.96 75.4091C261.441 76.366 261.181 77.5265 261.181 78.8906ZM301.727 93.5497C300.24 93.5497 298.892 93.2698 297.68 92.7099C296.469 92.1398 295.507 91.3203 294.794 90.2514C294.082 89.1723 293.725 87.8693 293.725 86.3423C293.725 84.9986 293.99 83.9093 294.519 83.0746C295.049 82.2296 295.756 81.5679 296.642 81.0895C297.527 80.611 298.505 80.2547 299.574 80.0206C300.653 79.7763 301.737 79.5829 302.826 79.4403C304.251 79.2571 305.407 79.1197 306.292 79.0281C307.188 78.9263 307.84 78.7583 308.247 78.5241C308.664 78.29 308.873 77.8828 308.873 77.3026V77.1804C308.873 75.6738 308.461 74.5031 307.636 73.6683C306.822 72.8336 305.585 72.4162 303.926 72.4162C302.205 72.4162 300.856 72.7929 299.879 73.5462C298.902 74.2995 298.215 75.1037 297.818 75.9588L294.397 74.7372C295.008 73.312 295.822 72.2024 296.84 71.4084C297.868 70.6042 298.988 70.0443 300.2 69.7287C301.421 69.4029 302.622 69.2401 303.803 69.2401C304.557 69.2401 305.422 69.3317 306.399 69.5149C307.387 69.688 308.339 70.0494 309.255 70.5991C310.181 71.1488 310.95 71.9785 311.56 73.0881C312.171 74.1977 312.477 75.6839 312.477 77.5469V93H308.873V89.8239H308.69C308.445 90.3329 308.038 90.8775 307.468 91.4577C306.898 92.038 306.14 92.5317 305.193 92.9389C304.246 93.3461 303.091 93.5497 301.727 93.5497ZM302.276 90.3125C303.702 90.3125 304.903 90.0326 305.88 89.4727C306.868 88.9128 307.611 88.19 308.109 87.3043C308.618 86.4187 308.873 85.4872 308.873 84.5099V81.2116C308.72 81.3949 308.384 81.5629 307.865 81.7156C307.356 81.8581 306.766 81.9853 306.094 82.0973C305.432 82.1991 304.786 82.2907 304.155 82.3722C303.534 82.4434 303.03 82.5045 302.643 82.5554C301.706 82.6776 300.831 82.8761 300.016 83.1509C299.212 83.4156 298.561 83.8177 298.062 84.3572C297.573 84.8866 297.329 85.6094 297.329 86.5256C297.329 87.7777 297.792 88.7244 298.718 89.3658C299.655 89.9969 300.841 90.3125 302.276 90.3125ZM335.668 74.7983L332.431 75.7145C332.227 75.175 331.927 74.6507 331.53 74.1417C331.143 73.6225 330.613 73.195 329.942 72.859C329.27 72.5231 328.41 72.3551 327.361 72.3551C325.926 72.3551 324.729 72.686 323.773 73.3477C322.826 73.9992 322.352 74.8288 322.352 75.8366C322.352 76.7325 322.678 77.44 323.33 77.9592C323.981 78.4783 324.999 78.911 326.384 79.2571L329.865 80.1122C331.962 80.6212 333.525 81.4 334.553 82.4485C335.581 83.4869 336.095 84.8255 336.095 86.4645C336.095 87.8082 335.709 89.0095 334.935 90.0682C334.171 91.1269 333.102 91.9616 331.728 92.5724C330.354 93.1832 328.756 93.4886 326.933 93.4886C324.541 93.4886 322.561 92.9695 320.993 91.9311C319.426 90.8928 318.433 89.3759 318.016 87.3807L321.436 86.5256C321.762 87.7879 322.378 88.7346 323.284 89.3658C324.2 89.9969 325.396 90.3125 326.872 90.3125C328.552 90.3125 329.886 89.9562 330.873 89.2436C331.871 88.5208 332.369 87.6555 332.369 86.6477C332.369 85.8333 332.084 85.1513 331.514 84.6016C330.944 84.0417 330.069 83.6243 328.888 83.3494L324.979 82.4332C322.831 81.9242 321.253 81.1353 320.245 80.0664C319.248 78.9873 318.749 77.6385 318.749 76.0199C318.749 74.6965 319.12 73.5258 319.863 72.5078C320.617 71.4898 321.64 70.6907 322.933 70.1104C324.236 69.5302 325.712 69.2401 327.361 69.2401C329.682 69.2401 331.504 69.7491 332.828 70.767C334.161 71.785 335.108 73.1288 335.668 74.7983ZM352.392 65.0866V61.7273H375.847V65.0866H366.013V93H362.226V65.0866H352.392ZM387.635 93.4886C385.375 93.4886 383.426 92.9898 381.787 91.9922C380.158 90.9844 378.901 89.5795 378.015 87.7777C377.14 85.9657 376.702 83.8584 376.702 81.456C376.702 79.0535 377.14 76.9361 378.015 75.1037C378.901 73.2611 380.132 71.8258 381.71 70.7976C383.298 69.7592 385.151 69.2401 387.269 69.2401C388.49 69.2401 389.696 69.4437 390.888 69.8509C392.079 70.258 393.163 70.9197 394.14 71.8359C395.117 72.742 395.896 73.9432 396.476 75.4396C397.057 76.9361 397.347 78.7786 397.347 80.9673V82.4943H379.267V79.3793H393.682C393.682 78.0559 393.417 76.875 392.888 75.8366C392.369 74.7983 391.626 73.9788 390.658 73.3782C389.702 72.7776 388.572 72.4773 387.269 72.4773C385.833 72.4773 384.591 72.8336 383.543 73.5462C382.504 74.2486 381.705 75.1648 381.145 76.2947C380.585 77.4247 380.305 78.6361 380.305 79.929V82.0057C380.305 83.777 380.611 85.2785 381.222 86.5103C381.843 87.7319 382.703 88.6634 383.802 89.3047C384.902 89.9358 386.179 90.2514 387.635 90.2514C388.582 90.2514 389.437 90.1191 390.2 89.8544C390.974 89.5795 391.641 89.1723 392.201 88.6328C392.761 88.0831 393.193 87.401 393.499 86.5866L396.98 87.5639C396.614 88.7448 395.998 89.7831 395.133 90.679C394.267 91.5646 393.198 92.2569 391.926 92.7557C390.653 93.2443 389.223 93.4886 387.635 93.4886ZM406.432 78.8906V93H402.829V69.5455H406.31V73.2102H406.616C407.165 72.0192 408 71.0623 409.12 70.3395C410.24 69.6065 411.685 69.2401 413.456 69.2401C415.044 69.2401 416.434 69.5658 417.625 70.2173C418.816 70.8587 419.743 71.8359 420.404 73.1491C421.066 74.4522 421.397 76.1013 421.397 78.0966V93H417.793V78.3409C417.793 76.4983 417.315 75.063 416.358 74.0348C415.401 72.9964 414.088 72.4773 412.418 72.4773C411.268 72.4773 410.24 72.7267 409.334 73.2255C408.438 73.7243 407.73 74.4522 407.211 75.4091C406.692 76.366 406.432 77.5265 406.432 78.8906ZM434.884 93.5497C433.398 93.5497 432.049 93.2698 430.837 92.7099C429.626 92.1398 428.664 91.3203 427.951 90.2514C427.239 89.1723 426.882 87.8693 426.882 86.3423C426.882 84.9986 427.147 83.9093 427.676 83.0746C428.206 82.2296 428.913 81.5679 429.799 81.0895C430.685 80.611 431.662 80.2547 432.731 80.0206C433.81 79.7763 434.894 79.5829 435.983 79.4403C437.408 79.2571 438.564 79.1197 439.45 79.0281C440.345 78.9263 440.997 78.7583 441.404 78.5241C441.821 78.29 442.03 77.8828 442.03 77.3026V77.1804C442.03 75.6738 441.618 74.5031 440.793 73.6683C439.979 72.8336 438.742 72.4162 437.083 72.4162C435.362 72.4162 434.013 72.7929 433.036 73.5462C432.059 74.2995 431.372 75.1037 430.975 75.9588L427.554 74.7372C428.165 73.312 428.98 72.2024 429.998 71.4084C431.026 70.6042 432.145 70.0443 433.357 69.7287C434.578 69.4029 435.78 69.2401 436.961 69.2401C437.714 69.2401 438.579 69.3317 439.556 69.5149C440.544 69.688 441.496 70.0494 442.412 70.5991C443.338 71.1488 444.107 71.9785 444.718 73.0881C445.328 74.1977 445.634 75.6839 445.634 77.5469V93H442.03V89.8239H441.847C441.603 90.3329 441.195 90.8775 440.625 91.4577C440.055 92.038 439.297 92.5317 438.35 92.9389C437.403 93.3461 436.248 93.5497 434.884 93.5497ZM435.434 90.3125C436.859 90.3125 438.06 90.0326 439.037 89.4727C440.025 88.9128 440.768 88.19 441.267 87.3043C441.776 86.4187 442.03 85.4872 442.03 84.5099V81.2116C441.877 81.3949 441.542 81.5629 441.022 81.7156C440.513 81.8581 439.923 81.9853 439.251 82.0973C438.589 82.1991 437.943 82.2907 437.312 82.3722C436.691 82.4434 436.187 82.5045 435.8 82.5554C434.864 82.6776 433.988 82.8761 433.174 83.1509C432.369 83.4156 431.718 83.8177 431.219 84.3572C430.73 84.8866 430.486 85.6094 430.486 86.5256C430.486 87.7777 430.949 88.7244 431.876 89.3658C432.812 89.9969 433.998 90.3125 435.434 90.3125ZM455.815 78.8906V93H452.211V69.5455H455.693V73.2102H455.998C456.548 72.0192 457.383 71.0623 458.503 70.3395C459.622 69.6065 461.068 69.2401 462.839 69.2401C464.427 69.2401 465.817 69.5658 467.008 70.2173C468.199 70.8587 469.125 71.8359 469.787 73.1491C470.449 74.4522 470.78 76.1013 470.78 78.0966V93H467.176V78.3409C467.176 76.4983 466.697 75.063 465.741 74.0348C464.784 72.9964 463.47 72.4773 461.801 72.4773C460.651 72.4773 459.622 72.7267 458.716 73.2255C457.821 73.7243 457.113 74.4522 456.594 75.4091C456.075 76.366 455.815 77.5265 455.815 78.8906ZM487.565 69.5455V72.5994H475.41V69.5455H487.565ZM478.953 63.9261H482.556V86.2812C482.556 87.2992 482.704 88.0627 482.999 88.5717C483.305 89.0705 483.692 89.4065 484.16 89.5795C484.638 89.7424 485.142 89.8239 485.672 89.8239C486.069 89.8239 486.394 89.8035 486.649 89.7628C486.903 89.7119 487.107 89.6712 487.26 89.6406L487.993 92.8778C487.748 92.9695 487.407 93.0611 486.969 93.1527C486.532 93.2545 485.977 93.3054 485.305 93.3054C484.287 93.3054 483.289 93.0865 482.312 92.6488C481.345 92.2111 480.541 91.5443 479.9 90.6484C479.268 89.7526 478.953 88.6226 478.953 87.2585V63.9261Z" fill="#5F7BC9"/>
<path d="M102.414 77.4142C103.195 76.6332 103.195 75.3668 102.414 74.5858L89.6863 61.8579C88.9052 61.0768 87.6389 61.0768 86.8579 61.8579C86.0768 62.6389 86.0768 63.9052 86.8579 64.6863L98.1716 76L86.8579 87.3137C86.0768 88.0948 86.0768 89.3611 86.8579 90.1421C87.6389 90.9232 88.9052 90.9232 89.6863 90.1421L102.414 77.4142ZM67 78L101 78L101 74L67 74L67 78Z" fill="#5F7BC9"/>
<line x1="77" y1="68" x2="77" y2="50" stroke="#5F7BC9" stroke-width="4"/>
<line x1="78" y1="52" x2="116" y2="52" stroke="#5F7BC9" stroke-width="4"/>
<line x1="78" y1="101" x2="116" y2="101" stroke="#5F7BC9" stroke-width="4"/>
<line x1="77" y1="103" x2="77" y2="85" stroke="#5F7BC9" stroke-width="4"/>
<line x1="114" y1="103" x2="114" y2="53" stroke="#5F7BC9" stroke-width="4"/>
<defs>
<filter id="filter0_d_6_33" x="-9" y="-6" width="541" height="175" filterUnits="userSpaceOnUse" color-interpolation-filters="sRGB">
<feFlood flood-opacity="0" result="BackgroundImageFix"/>
<feColorMatrix in="SourceAlpha" type="matrix" values="0 0 0 0 0 0 0 0 0 0 0 0 0 0 0 0 0 0 127 0" result="hardAlpha"/>
<feMorphology radius="5" operator="dilate" in="SourceAlpha" result="effect1_dropShadow_6_33"/>
<feOffset dx="-5" dy="5"/>
<feGaussianBlur stdDeviation="7.5"/>
<feComposite in2="hardAlpha" operator="out"/>
<feColorMatrix type="matrix" values="0 0 0 0 0.779423 0 0 0 0 0.85087 0 0 0 0 0.927245 0 0 0 0.55 0"/>
<feBlend mode="normal" in2="BackgroundImageFix" result="effect1_dropShadow_6_33"/>
<feBlend mode="normal" in="SourceGraphic" in2="effect1_dropShadow_6_33" result="shape"/>
</filter>
<linearGradient id="paint0_linear_6_33" x1="556" y1="85" x2="-21" y2="-24" gradientUnits="userSpaceOnUse">
<stop stop-color="#EEBFDF"/>
<stop offset="0.502994" stop-color="#7D77EC"/>
<stop offset="1" stop-color="#90F3F4"/>
</linearGradient>
</defs>
</svg>
