<?xml version="1.0" encoding="UTF-8"?>
<svg id="Layer_1" data-name="Layer 1" xmlns="http://www.w3.org/2000/svg" viewBox="0 0 1024 1024">
  <defs>
    <style>
      .cls-1 {
        fill: #111010;
      }

      .cls-2 {
        fill: #fdfeff;
      }

      .cls-3 {
        fill: #f79458;
      }

      .cls-4 {
        fill: #fff;
      }

      .cls-5 {
        fill: #f4753a;
      }

      .cls-6 {
        fill: #f3733c;
      }

      .cls-7 {
        fill: #ecf3ec;
      }

      .cls-8 {
        fill: #121111;
      }

      .cls-9 {
        fill: #080808;
      }
    </style>
  </defs>
  <g>
    <path class="cls-6" d="M509.87,163.22c-33.83,9.69-258.46,238.4-287.34,314.71-10.72,28.32-18.18,56.21-18.18,56.21-15.68,58.6-18.1,104.72-20.81,162.66-2.33,49.74,1.24,32.68-.67,108.41,0,0-2.5,99.06,18.1,150.17,4.67,11.59,11.21,20.86,21.11,25.14,7.96,3.45,15.39,2.5,18.08,2.18,25.68-3.01,51.71,3.04,77.53,1.91,35.92-1.57,71.89-1.23,107.83-2.37,83.53-2.64,101.05-3.26,135.7-4.28,17.14-.5,14.82-.41,100.35-2.65,55.89-1.47,111.76-7.14,167.64-5.25,41.41,1.4,84.45-2.11,95.69-6.54,9.28-3.66,25.26-28.18,26.21-30.11,8.39-17.06,7.57-32.04,6.87-54.08-.81-25.65.12-51.35-1.11-76.98-2.36-49.17-.03-40.85-2.24-95.76-1.78-44.27-4.26-73.78-7.98-118.05-6.19-73.61-9.07-83.87-13.18-94.06-15.72-39.02-43.03-61.42-61.57-76.97-166.13-139.25-203.15-171.61-299.31-236.03-27.81-18.63-47.58-22.58-62.71-18.24Z"/>
    <path class="cls-5" d="M66.48,865.48c-13.8,14.24-16.15,31.55-16.96,38.15-2.96,24.32,7.48,42.47,9.97,46.57,11.7,19.28,28.88,27.07,36.63,30.45,7.76,3.39,44.08,19.23,74.43-1.28,27.71-18.73,29.06-53.32,29.33-60.29.25-6.55,1.43-36.77-20.52-58.15-29.07-28.31-74.31-17.35-93.42-8.7-11.15,5.04-17.33,11.06-19.46,13.27Z"/>
    <path class="cls-3" d="M222.91,479.18l-21.89,64.34-12.24,68.72s82.57,45.48,90.04,47.19,47.17,49.26,47.17,49.26l352.42,170.84,103.9-16.25,22.23-44.09,63.06-99.89s71.64-7.95,84.03-27.44c3.35-5.26.38-30.98.38-30.98,0,0-4.59-57.48-5.88-78.31-1.36-21.86-4.12-71.96-14.26-91.58-35.7-69.1-224.27-215.52-224.27-215.52l-179.11-117.17-224.92,188.18-80.66,132.71Z"/>
  </g>
  <path class="cls-8" d="M725.23,264.87c5.87-6.77,13.89-15.92,27.64-26.78,3.51-2.77,13.32-10.34,27.7-18.51,11.03-6.27,28.03-14.76,49.93-20.67,12.54-3.39,21.31-4.48,30.86-2.62,11.24,2.19,16.15,7.02,17.51,8.45,4.53,4.77,6.08,10.09,6.61,12.42,1.84,8.04-.63,14.58-1.97,18-2.07,5.26-5.62,10.82-15.58,19.25-14.74,12.47-28.73,18.69-32.09,20.15-17.05,7.39-31.3,9.45-41.33,10.83-16.82,2.31-16.02-.09-45.61,1.43-25.05,1.28-34.86,3.48-36.99-.94-1.71-3.55,3.28-9.42,13.33-21.01Z"/>
  <path class="cls-1" d="M718.86,14.12c-13.03,7.36-24.1,17.94-36.18,32.07-14.94,17.47-22.66,31.48-32.55,56.96-11.45,29.49-10.29,43.04-10.89,49.13-1.23,12.51-.44,22.74.38,33.45.32,4.14,1.65,20.12,6.84,41.62,4.49,18.57,6.84,27.91,11.97,30.79,11.53,6.45,29.75-5.83,45.61-16.53,3.35-2.26,18.98-13.01,34.78-32.5,10.46-12.9,16.57-24.18,18.81-28.51,4.67-8.98,9.85-23.34,13.11-43.61,3.81-23.67,2.14-42.78-1.14-58.44-1.25-5.96-3.87-14.24-9.12-30.79-4.56-14.39-9.35-21.91-16.97-29.51-4.03-4.02-7.17-5.3-10.97-6.12-3.27-.71-7.73-1.37-13.68,2Z"/>
  <path class="cls-7" d="M704.85,89.39c-11.59,25.92-11.35,30.32-14.25,42.09-3.56,14.43-8.85,40.29-12.14,58.21-1.42,7.78-5.19,33.03-2.69,34.3,1.72.87,9.47-15.92,9.98-17.72,4.85-17.39,10.81-42.64,14.03-54.94,3.49-13.31,5.38-28.39,7.46-37.79,1.3-5.88,1.03-9.32,3.03-22.15.21-1.34.5-7.48-1.14-7.7-1.15-.15-2.83,2.47-4.28,5.7Z"/>
  <g>
    <path class="cls-4" d="M500.38,438.92c5-1.61,18.38-3.63,45.23-2.66,32.41,1.17,56.47-.48,104.9-.25,9.34.04,20.32,2.46,23.95,8.62,3.58,6.08,1.82,18.32,1.9,22.42.68,34.18.58,73.37-.76,109.84-.5,13.69,1.21,26.18,1.17,41.05-.03,11.29-1.45,31.26-17.13,37.63-3.8,1.54-14.06.38-30.79.38-14.25,0-25.66,1-37.63.38-10.79-.56-53.97-1.52-68.8-.91-14.42.6-32.68,4.33-32.68-21.52,0-54.87,5.13-132.29,4.56-157.35-.31-13.85-.36-35.56,6.08-37.63Z"/>
    <polygon class="cls-9" points="516.72 462.86 648.99 463.24 644.43 630.86 515.96 628.96 516.72 462.86"/>
  </g>
  <g>
    <path class="cls-4" d="M335.72,738.23s2.66-9.5,8.36-11.78,14.44-6.46,25.09-6.84,57.39,1.14,80.2,1.52,93.88,2.28,116.69,3.8,66.51,3.42,74.88,6.08,29.27,7.6,32.69,15.2,6.46,44.85,6.08,55.11-4.18,118.97-5.32,135.69c-1.14,16.72-1.9,33.83-4.56,37.63s-7.62,5.54-7.62,5.54l-74.1,1.68-160.77,4.94h-98.44s-5.32-4.18-6.08-10.64,0-155.45,1.52-167.24c1.52-11.78,3.8-54.73,6.08-60.81s5.32-9.88,5.32-9.88Z"/>
    <path class="cls-9" d="M368.79,767.49c1.9-7.22,0-13.3,6.84-14.06s34.97,0,48.65,0,131.51,3.42,147.09,4.18,53.59,4.18,60.43,4.56,9.5,6.08,9.88,12.16-1.9,109.46-3.8,122.39-3.8,74.67-4.18,79.44-1.9,3.42-6.46,3.8c-4.56.38-256.52,10.64-260.34,8.17s-6.1-6.27-5.34-11.59,7.22-209.04,7.22-209.04Z"/>
    <path class="cls-2" d="M410.59,817.67c17.37-15.46,41.79-12.69,56.63-6.08,5.54,2.47,23.01,10.25,27.37,28.51,3.95,16.58-5.7,30.14-7.6,32.69-13.8,18.49-37.96,17.85-43.71,17.48-17.17-1.1-43.34-11.02-47.89-33.45-4.32-21.26,13.98-38.06,15.2-39.15Z"/>
  </g>
  <path class="cls-1" d="M198.1,466.1c-1.22,2.4-3.7,8.81-2.47,16.51.41,2.59,1.51,9.45,7.57,14.11,4.85,3.73,11.75,5.19,17.63,3.07,2.07-.75,5.17-2.36,10.55-9.75,4.87-6.7,7.76-10.54,11.88-18.81,7-14.06,20.75-36.18,39.43-59.29,9.02-11.15,34.55-41.93,98.06-103.19,38.09-36.74,58.56-55.19,79.25-72.41,35.75-29.75,58.34-49.03,65.99-53.47,2.87-1.67,20.04,6.8,24.66,9.57,25.28,15.11,54.37,35.55,73.45,49.96,51.79,39.12,30.49,18.2,115.83,91.43,83,71.21,86.31,77.32,116.88,102.05,22.6,18.29,46.56,41.62,64.04,55.02,1.25.96,7.35,7.16,14.06,9.98,6.15,2.58,14.89,2.32,21.66-2.85.87-.67,7.61-5.98,8.43-14.83.22-2.34-1.1-6.74-11.09-18.53-9.5-11.22-18.9-18.64-22.42-21.83-13.57-12.3-19.29-16.68-39.72-36.14-38.49-36.67-120-101.92-129.42-109.64-108.36-88.88-88.91-70.17-128.85-100.26,0,0-48.96-35.61-90.25-52.65-6.27-2.59-11.86-1.12-12.91-.96-11.89,1.74-16.6,9.28-21.74,12.96-23.09,16.55-67.98,49.06-90.29,67.71-27.95,23.37-61.74,48.24-86.69,73.19-43.97,43.98-67.71,71.7-91.11,100.64,0,0-26.42,36.96-42.42,68.41Z"/>
  <g>
    <path class="cls-1" d="M97.81,711.37c3.73-5.44,9.32-13.6,18.73-15.33,6.22-1.15,11.36,1.02,15.09,2.64,12.06,5.26,19.23,14.91,24.14,22.69,19.38,30.73,22.53,62.71,22.95,67.54,2.01,22.8-1.55,39.78-3.75,48.16-3.76,14.38-8.61,22.93-12.66,28.68-5.26,7.46-10.18,14.45-19.38,17.48-11.96,3.94-23.02-1.48-26.99-3.42-14.8-7.25-21.08-20.89-24.06-27.37-4.25-9.23-5.15-16.48-6.67-29.65-1.03-8.94-1.01-13.24.36-61.54.26-9.17.61-19.13,4.14-31.57,2.66-9.36,5.56-14.6,8.1-18.31Z"/>
    <path class="cls-1" d="M229.2,544.92s0-5.66,3.42-8.33,6.46-1.9,11.02-2.28,52.07,0,60.81,0,15.56,2.07,18.04,5.22,2.1,17.97,2.1,21.39.73,12.16-2.1,14.44-19.56,2.74-24.12,2.51-45.99-.42-47.89.05-10.26,1.7-12.92-.05-8.36-5.93-8.36-10.49v-22.46Z"/>
    <path class="cls-1" d="M373.25,575.36c6.08,2.28,10.64,8.36,11.02,14.06s.76,19.38-3.8,23.95-7.98,6.08-16.34,6.84c-8.36.76-33.07,1.9-43.71,2.28s-34.97,1.14-45.61,0c-10.64-1.14-15.58-4.56-18.24-9.12s-4.18-12.16-3.8-19.76,2.66-7.98,7.22-12.92,18.24-4.94,25.09-5.32c6.84-.38,37.42,0,37.42,0h50.75Z"/>
    <path class="cls-1" d="M531.75,249.63c10.26-.76,16.34-1.14,24.33,1.9s16.34,8.36,20.9,19c4.56,10.64,7.6,23.57,5.7,33.07s-3.04,15.96-11.4,20.9-19.38,7.22-30.79,6.84-22.64-3.42-29.57-14.06-9.58-26.61-6.92-36.87,8.36-18.62,14.82-23.18,12.92-7.6,12.92-7.6Z"/>
    <path class="cls-1" d="M795.14,540.4s6.46-3.04,13.3-3.04,36.49-1.52,42.57,0c6.08,1.52,9.12,3.42,10.26,12.92,1.14,9.5.99,15.96-2.66,23.57-3.39,7.06-7.6,7.98-14.44,9.12-6.84,1.14-24.71,1.52-36.87.38-12.16-1.14-23.95-5.47-19.76-32.31.84-5.38,7.6-10.64,7.6-10.64Z"/>
    <path class="cls-1" d="M843.03,579.16c14.53.38,19.8-1.98,26.61,2.66,4.63,3.16,6.82,7.4,7.6,9.12,4.13,9.15.4,18.11-.76,20.9-1.31,3.16-3.38,8.13-8.36,11.4-4.43,2.91-7.78,2.25-21.28,2.66-11.74.36-9.77.88-21.66,1.14-13.29.29-19.99.39-23.18-1.9-7.51-5.4-7.84-16.65-7.98-21.66-.12-4.2-.32-11.03,4.18-17.1.67-.9,3.91-5.13,11.4-7.98,10.48-3.99,14.68.27,33.45.76Z"/>
    <path class="cls-1" d="M741.74,815.95c3.8-10.64,5.32-12.92,16.72-13.68s54.73,2.74,71.46,4.03c16.72,1.29,25.2.48,31.98,6.61,6.78,6.13,2.34,15.96,0,26.61-2.34,10.64-2.34,12.1-15.26,13.65-12.92,1.55-53.97-2.85-71.46-4.83-17.48-1.98-22.8,1.06-28.13-8.82-5.32-9.88-5.32-23.57-5.32-23.57Z"/>
    <path class="cls-1" d="M900.61,872.97c2.16,11.24-4.07,23.16-12.16,28.89-9.15,6.47-16.74,2.25-49.41-1.52-22.19-2.56-27.28-1.61-53.21-5.32-24.67-3.53-33.06-6.26-38.77-13.68-.95-1.23-8.26-11.04-5.32-22.04,2.13-7.97,8.54-12.45,10.55-13.81,14.22-9.63,27.4-.23,63.94,2.41,1.7.12,16.34.84,45.61,2.28,11.97.59,22.94,1.12,31.17,9.12,1.35,1.31,6.14,6.11,7.6,13.68Z"/>
    <path class="cls-1" d="M922.66,842.56c-4.16,4.17-5.46,11.17-2.28,16.72,2.98,5.21,8.81,7.23,13.68,6.84.46-.04,8.9-.86,12.16-8.36,1.91-4.41,1.44-9.74-1.52-13.68-3.42-4.54-8.59-5.17-9.88-5.32-1.71-.21-7.73-.64-12.16,3.8Z"/>
    <path class="cls-1" d="M906.7,785.55c-5.36,4.27-5.98,10.76-6.08,12.16-.1,1.47-.52,7.52,3.8,12.16,4.59,4.92,11.74,5.28,16.72,3.8.5-.15,10.39-3.27,12.16-12.92.06-.34,1.44-8.66-4.56-14.44-6.05-5.83-15.98-5.59-22.04-.76Z"/>
    <path class="cls-1" d="M170.86,886.65c10.48-.05,20.11,15.81,17.48,28.89-1.59,7.92-8.18,17.28-16.72,17.48-10.11.24-18.35-12.47-18.24-23.57.11-11.03,8.5-22.76,17.48-22.8Z"/>
    <path class="cls-1" d="M268.16,817.47c5.83-8.23,16.7-10.29,25.09-7.6,8.65,2.78,16.96,11.35,15.96,21.28-1.07,10.64-12.08,15.6-12.92,15.96-10.44,4.5-25.51,1.05-30.41-9.88-2.9-6.48-1.63-14.25,2.28-19.76Z"/>
    <path class="cls-1" d="M853.48,751.34c.33-.77,6.33-14.18,18.24-13.68,7.7.32,13.62,6.29,15.96,12.16,3.78,9.48-.27,22.45-10.64,26.61-8.46,3.39-19.14.1-23.57-7.6-4.3-7.47-.76-15.71,0-17.48Z"/>
    <path class="cls-1" d="M895.29,529.37c6.5-5.9,17.09-7.89,24.33-3.04,9.63,6.45,7.87,21.39,3.8,29.65-.88,1.78-6.26,12.7-15.96,12.92-8.92.2-15.26-8.78-17.48-15.2-2.43-7.01-2.22-17.47,5.32-24.33Z"/>
    <path class="cls-1" d="M811.68,432.07c4.9-6.55,14.03-8.84,21.28-6.08,10.09,3.83,14.19,16.49,10.64,25.85-2.18,5.73-7.75,11.58-15.2,12.16-9.33.73-16.61-7.18-19-14.44-.52-1.56-3.16-10.22,2.28-17.48Z"/>
    <path class="cls-1" d="M604.91,312.73c4.41-3.38,12.38-1.93,15.96,2.28,3.22,3.79.28,6.74,3.04,15.96,2.17,7.23,5.12,9.25,3.8,12.16-1.55,3.41-7.36,4.44-11.4,3.8-6.91-1.09-10.63-7.32-12.16-9.88-.75-1.26-4.48-7.77-3.04-15.96.53-3.01,1.1-6.29,3.8-8.36Z"/>
    <path class="cls-1" d="M597.31,279.28c2.29-2.71,7.36-2.31,17.48-1.52,8.9.7,10.55,2.09,11.4,3.04,2.8,3.15,3.09,8.63.76,12.16-2.53,3.83-7.36,4.14-13.68,4.56-6.15.4-10.34.68-13.68-2.28-4.45-3.94-5.63-12.01-2.28-15.96Z"/>
    <path class="cls-1" d="M578.31,259.52c.25-3.34,3.67-6.66,8.36-7.6,2.71-6.12,8.55-9.01,12.92-7.6,3.92,1.26,5.94,5.75,6.08,9.12.27,6.25-5.73,12.85-15.2,15.2-7.33.69-12.49-4.7-12.16-9.12Z"/>
    <path class="cls-1" d="M500.77,230.63c-1.2,5.62,6.75,11.42,11.4,13.68,3.2,1.55,6.2,2.09,8.36,2.28,5.64,1.14,10.99-1.23,12.92-5.32,2.73-5.79-2.87-11.9-3.8-12.92-4.96-5.42-12.01-5.34-13.68-5.32-5.27.06-14.06,2.25-15.2,7.6Z"/>
    <path class="cls-1" d="M556.26,219.99c2.02-1.71,5.4-1.64,12.16-1.52,6.07.11,9.11.17,10.64,1.52,4.69,4.14,3.28,17.28-4.56,22.8-3.54,2.5-9.6,4.29-14.44,1.52-4.28-2.45-5.43-7.2-6.08-9.88-.32-1.33-2.51-10.4,2.28-14.44Z"/>
    <path class="cls-1" d="M439.96,313.49c-6.04,3.29-8.93,8.21-9.88,9.88-1.75,3.06-5,8.78-3.04,15.2.3.98,1.99,6.52,6.84,8.36,6.97,2.65,14.48-4.64,15.96-6.08,4.65-4.52,6.07-9.65,7.6-15.2,1.84-6.66,3.05-11.05.76-13.68-3.54-4.08-13.11-1.28-18.24,1.52Z"/>
    <path class="cls-1" d="M470.36,369.74c7.28-4.03,15.28-3.42,19,.76,5.05,5.66.18,15.54-1.52,19-3.97,8.06-10.66,12.11-13.68,13.68-7.3-.86-13.34-5.72-15.2-12.16-2.37-8.17,2.32-17.7,11.4-21.28Z"/>
    <path class="cls-1" d="M525.09,348.45c1.52-.59,7.89-3.09,12.16,0,5.73,4.14,4.1,15.72,0,22.8-.37.64-7.47,12.58-15.96,10.64-5.42-1.23-8.3-7.41-9.12-11.4-1.9-9.23,4.7-18.82,12.92-22.04Z"/>
    <path class="cls-1" d="M484.81,323.37c2.28-1.63,8.21-5.87,12.92-3.8,6.28,2.76,8.1,15.74,3.04,24.33-4.57,7.76-13.37,9.55-15.2,9.88-1.22-.48-8.64-3.51-10.64-10.64-2.91-10.37,8.6-18.85,9.88-19.76Z"/>
    <path class="cls-1" d="M563.86,336.29c4.21-1.63,9.82,3.39,13.68,6.84,2.98,2.66,11.17,9.98,10.64,20.52-.08,1.63-.51,10.25-6.84,13.68-5.38,2.92-12.17.56-15.96-2.28-12.31-9.21-9.42-35.71-1.52-38.77Z"/>
    <path class="cls-1" d="M459.72,254.95c.6-4.67,4.68-9.4,9.12-9.88,4.35-.48,5.54,3.5,12.16,6.08,9.51,3.71,15.71-1.11,18.24,2.28,2.7,3.62-1.19,13.28-8.36,17.48-7.8,4.57-16.34.83-18.24,0-4.87-2.13-13.93-8.11-12.92-15.96Z"/>
    <path class="cls-1" d="M449.08,295.24c-1.58-5.28,6.26-11.45,9.88-13.68,1.24-.76,8.52-5.09,17.48-3.04,1.99.45,9.76,2.23,10.64,6.84.92,4.8-6.24,9.51-9.12,11.4-2.19,1.44-6.94,4.48-13.68,4.56-4.07.05-13.65-.91-15.2-6.08Z"/>
    <path class="cls-1" d="M642.92,315.01c2.05-3.2,6.04-5.32,9.88-5.32,6.22,0,10.23,5.58,18.24,16.72,5.73,7.96,5.64,10.12,5.32,11.4-1.23,5-8.6,7.96-14.44,7.6-8.31-.51-13.21-7.71-15.2-10.64-1.45-2.13-8.48-12.47-3.8-19.76Z"/>
    <path class="cls-1" d="M612.51,378.1c.71,1.3,6.25,11.81.76,21.28-2.41,4.15-7.78,9.55-12.16,8.36-3.23-.87-4.69-6.16-7.6-16.72-2.95-10.7-2.15-13.12-1.52-14.44,1.88-3.97,6.62-7.49,11.4-6.84,4.91.67,7.5,5.4,9.12,8.36Z"/>
    <path class="cls-1" d="M661.16,374.3c.32-.15,6.26-2.87,12.16,0,5.97,2.9,7.51,9.37,8.36,12.92.93,3.89,2.44,10.2-1.52,15.2-3.74,4.72-10.31,5.7-15.2,4.56-7.88-1.83-11.05-9.04-11.4-9.88-3.42-8.15-.11-19.13,7.6-22.8Z"/>
    <path class="cls-1" d="M282.6,771.87c6.93-7.73,19.09-3.3,19.76-3.04,5.96,2.28,13.88,8.62,12.92,16.72-.88,7.48-8.76,11.63-13.68,12.92-1.26.33-10.87,2.69-17.48-3.8-5.91-5.79-7.2-16.46-1.52-22.8Z"/>
    <path class="cls-1" d="M225.59,731.58c1.3-2.33,5.01-7.94,12.16-9.88,5.25-1.42,14.49-1.44,19,5.32,4.06,6.08,2.77,15.34-3.8,21.28-10.61,8.85-23.34,8.16-28.13,2.28-4.18-5.13-2.07-13.92.76-19Z"/>
    <path class="cls-1" d="M319.09,456.4c5.39-4.07,14.4-5.9,20.52-1.52,7.45,5.32,5.96,16.48,5.32,21.28-.64,4.81-2.03,15.2-9.88,18.24-6.95,2.69-14.98-1.91-19-6.84-7.17-8.78-6.22-24.18,3.04-31.17Z"/>
    <path class="cls-1" d="M227.11,778.71c.72-1.23,4.21-6.84,11.4-9.12,1.27-.4,11.21-3.38,18.24,3.04,8.19,7.48,3.98,20.01,3.8,20.52-.5,1.42-3.36,9.01-11.4,12.16-6.95,2.73-16.75,1.73-22.04-5.32-6.88-9.17-.29-20.79,0-21.28Z"/>
    <path class="cls-1" d="M210.39,828.88c1.21-1.17,9.81-9.43,20.52-6.08,6.51,2.03,11.65,7.69,12.92,14.44,1.79,9.54-4.82,17.71-11.4,21.28-5.75,3.12-15.07,4.71-22.04-.76-6.72-5.27-6.84-13.64-6.84-14.44.02-7.88,5.15-12.82,6.84-14.44Z"/>
    <path class="cls-1" d="M248.39,871.45c2.38-7.1,10.97-9.37,12.92-9.88,1.54-.41,13.47-3.56,20.52,4.56,6.22,7.16,3.24,16.86,3.04,17.48-.44,1.37-2.26,6.67-7.6,9.88-7.57,4.54-17.33,1.97-22.8-3.04-3.49-3.19-4.86-7.03-5.32-8.36-.75-2.18-2.2-6.36-.76-10.64Z"/>
  </g>
</svg>