<svg width="527" height="166" viewBox="0 0 527 166" fill="none" xmlns="http://www.w3.org/2000/svg">
<g filter="url(#filter0_d_1_12)">
<rect x="18" y="11" width="497" height="131" rx="11" stroke="url(#paint0_linear_1_12)" stroke-width="4" shape-rendering="crispEdges"/>
</g>
<path d="M149.787 93V61.7273H160.354C162.797 61.7273 164.802 62.1446 166.37 62.9794C167.938 63.804 169.098 64.939 169.852 66.3846C170.605 67.8301 170.982 69.4742 170.982 71.3168C170.982 73.1593 170.605 74.7932 169.852 76.2184C169.098 77.6436 167.943 78.7634 166.385 79.5778C164.828 80.382 162.838 80.7841 160.415 80.7841H151.864V77.3636H160.293C161.962 77.3636 163.306 77.1193 164.324 76.6307C165.352 76.142 166.095 75.4498 166.553 74.554C167.022 73.648 167.256 72.5689 167.256 71.3168C167.256 70.0646 167.022 68.9703 166.553 68.0337C166.085 67.0972 165.337 66.3744 164.309 65.8654C163.28 65.3462 161.921 65.0866 160.232 65.0866H153.574V93H149.787ZM164.507 78.9517L172.203 93H167.805L160.232 78.9517H164.507ZM186.385 93.4886C184.125 93.4886 182.176 92.9898 180.537 91.9922C178.908 90.9844 177.651 89.5795 176.765 87.7777C175.89 85.9657 175.452 83.8584 175.452 81.456C175.452 79.0535 175.89 76.9361 176.765 75.1037C177.651 73.2611 178.882 71.8258 180.46 70.7976C182.048 69.7592 183.901 69.2401 186.019 69.2401C187.24 69.2401 188.446 69.4437 189.638 69.8509C190.829 70.258 191.913 70.9197 192.89 71.8359C193.867 72.742 194.646 73.9432 195.226 75.4396C195.807 76.9361 196.097 78.7786 196.097 80.9673V82.4943H178.017V79.3793H192.432C192.432 78.0559 192.167 76.875 191.638 75.8366C191.119 74.7983 190.376 73.9788 189.408 73.3782C188.452 72.7776 187.322 72.4773 186.019 72.4773C184.583 72.4773 183.341 72.8336 182.293 73.5462C181.254 74.2486 180.455 75.1648 179.895 76.2947C179.335 77.4247 179.055 78.6361 179.055 79.929V82.0057C179.055 83.777 179.361 85.2785 179.972 86.5103C180.593 87.7319 181.453 88.6634 182.552 89.3047C183.652 89.9358 184.929 90.2514 186.385 90.2514C187.332 90.2514 188.187 90.1191 188.95 89.8544C189.724 89.5795 190.391 89.1723 190.951 88.6328C191.511 88.0831 191.943 87.401 192.249 86.5866L195.73 87.5639C195.364 88.7448 194.748 89.7831 193.883 90.679C193.017 91.5646 191.948 92.2569 190.676 92.7557C189.403 93.2443 187.973 93.4886 186.385 93.4886ZM215.016 77.9134V81.2727H201.334V77.9134H215.016ZM248.232 77.3636C248.232 80.6619 247.636 83.5123 246.445 85.9148C245.254 88.3172 243.62 90.17 241.544 91.473C239.467 92.776 237.095 93.4276 234.428 93.4276C231.761 93.4276 229.389 92.776 227.312 91.473C225.235 90.17 223.602 88.3172 222.411 85.9148C221.219 83.5123 220.624 80.6619 220.624 77.3636C220.624 74.0653 221.219 71.215 222.411 68.8125C223.602 66.41 225.235 64.5573 227.312 63.2543C229.389 61.9512 231.761 61.2997 234.428 61.2997C237.095 61.2997 239.467 61.9512 241.544 63.2543C243.62 64.5573 245.254 66.41 246.445 68.8125C247.636 71.215 248.232 74.0653 248.232 77.3636ZM244.567 77.3636C244.567 74.6558 244.114 72.3704 243.208 70.5075C242.312 68.6445 241.096 67.2346 239.559 66.2777C238.032 65.3208 236.321 64.8423 234.428 64.8423C232.534 64.8423 230.819 65.3208 229.282 66.2777C227.755 67.2346 226.538 68.6445 225.632 70.5075C224.737 72.3704 224.289 74.6558 224.289 77.3636C224.289 80.0715 224.737 82.3569 225.632 84.2198C226.538 86.0827 227.755 87.4927 229.282 88.4496C230.819 89.4065 232.534 89.8849 234.428 89.8849C236.321 89.8849 238.032 89.4065 239.559 88.4496C241.096 87.4927 242.312 86.0827 243.208 84.2198C244.114 82.3569 244.567 80.0715 244.567 77.3636ZM254.111 101.795V69.5455H257.592V73.2713H258.02C258.285 72.8641 258.651 72.3449 259.119 71.7138C259.598 71.0724 260.28 70.5024 261.165 70.0036C262.061 69.4946 263.273 69.2401 264.8 69.2401C266.775 69.2401 268.515 69.7338 270.022 70.7212C271.529 71.7087 272.704 73.1084 273.549 74.9205C274.394 76.7325 274.817 78.8703 274.817 81.3338C274.817 83.8177 274.394 85.9708 273.549 87.793C272.704 89.605 271.534 91.0098 270.037 92.0075C268.541 92.9949 266.815 93.4886 264.861 93.4886C263.354 93.4886 262.148 93.2392 261.242 92.7404C260.336 92.2314 259.638 91.6562 259.15 91.0149C258.661 90.3634 258.285 89.8239 258.02 89.3963H257.714V101.795H254.111ZM257.653 81.2727C257.653 83.044 257.913 84.6067 258.432 85.9606C258.951 87.3043 259.71 88.358 260.707 89.1214C261.705 89.8748 262.927 90.2514 264.372 90.2514C265.879 90.2514 267.136 89.8544 268.144 89.0604C269.162 88.2562 269.925 87.1771 270.434 85.8232C270.953 84.459 271.213 82.9422 271.213 81.2727C271.213 79.6236 270.959 78.1373 270.45 76.8139C269.951 75.4804 269.192 74.4267 268.174 73.6531C267.167 72.8692 265.899 72.4773 264.372 72.4773C262.906 72.4773 261.674 72.8488 260.677 73.592C259.679 74.3249 258.926 75.3531 258.417 76.6765C257.908 77.9897 257.653 79.5218 257.653 81.2727ZM290.148 93.4886C287.888 93.4886 285.938 92.9898 284.299 91.9922C282.671 90.9844 281.413 89.5795 280.528 87.7777C279.652 85.9657 279.214 83.8584 279.214 81.456C279.214 79.0535 279.652 76.9361 280.528 75.1037C281.413 73.2611 282.645 71.8258 284.223 70.7976C285.811 69.7592 287.664 69.2401 289.781 69.2401C291.003 69.2401 292.209 69.4437 293.4 69.8509C294.591 70.258 295.675 70.9197 296.653 71.8359C297.63 72.742 298.409 73.9432 298.989 75.4396C299.569 76.9361 299.859 78.7786 299.859 80.9673V82.4943H281.78V79.3793H296.195C296.195 78.0559 295.93 76.875 295.401 75.8366C294.881 74.7983 294.138 73.9788 293.171 73.3782C292.214 72.7776 291.084 72.4773 289.781 72.4773C288.346 72.4773 287.104 72.8336 286.055 73.5462C285.017 74.2486 284.218 75.1648 283.658 76.2947C283.098 77.4247 282.818 78.6361 282.818 79.929V82.0057C282.818 83.777 283.124 85.2785 283.734 86.5103C284.355 87.7319 285.216 88.6634 286.315 89.3047C287.414 89.9358 288.692 90.2514 290.148 90.2514C291.094 90.2514 291.95 90.1191 292.713 89.8544C293.487 89.5795 294.154 89.1723 294.713 88.6328C295.273 88.0831 295.706 87.401 296.011 86.5866L299.493 87.5639C299.126 88.7448 298.511 89.7831 297.645 90.679C296.78 91.5646 295.711 92.2569 294.439 92.7557C293.166 93.2443 291.736 93.4886 290.148 93.4886ZM308.945 78.8906V93H305.341V69.5455H308.823V73.2102H309.128C309.678 72.0192 310.513 71.0623 311.632 70.3395C312.752 69.6065 314.198 69.2401 315.969 69.2401C317.557 69.2401 318.947 69.5658 320.138 70.2173C321.329 70.8587 322.255 71.8359 322.917 73.1491C323.579 74.4522 323.909 76.1013 323.909 78.0966V93H320.306V78.3409C320.306 76.4983 319.827 75.063 318.87 74.0348C317.913 72.9964 316.6 72.4773 314.931 72.4773C313.78 72.4773 312.752 72.7267 311.846 73.2255C310.95 73.7243 310.243 74.4522 309.724 75.4091C309.205 76.366 308.945 77.5265 308.945 78.8906ZM341.367 65.0866V61.7273H364.821V65.0866H354.987V93H351.201V65.0866H341.367ZM370.177 93V69.5455H373.781V93H370.177ZM372.01 65.6364C371.307 65.6364 370.701 65.3971 370.192 64.9187C369.694 64.4402 369.444 63.8651 369.444 63.1932C369.444 62.5213 369.694 61.9461 370.192 61.4677C370.701 60.9892 371.307 60.75 372.01 60.75C372.712 60.75 373.313 60.9892 373.811 61.4677C374.32 61.9461 374.575 62.5213 374.575 63.1932C374.575 63.8651 374.32 64.4402 373.811 64.9187C373.313 65.3971 372.712 65.6364 372.01 65.6364ZM389.91 93.4886C387.711 93.4886 385.817 92.9695 384.229 91.9311C382.641 90.8928 381.42 89.4625 380.565 87.6403C379.709 85.8181 379.282 83.7363 379.282 81.3949C379.282 79.0128 379.72 76.9106 380.595 75.0884C381.481 73.256 382.713 71.8258 384.29 70.7976C385.878 69.7592 387.731 69.2401 389.849 69.2401C391.498 69.2401 392.984 69.5455 394.307 70.1562C395.631 70.767 396.715 71.6222 397.56 72.7216C398.405 73.821 398.929 75.1037 399.133 76.5696H395.529C395.254 75.5007 394.643 74.554 393.697 73.7294C392.76 72.8946 391.498 72.4773 389.91 72.4773C388.505 72.4773 387.273 72.8437 386.214 73.5767C385.166 74.2995 384.346 75.3226 383.756 76.646C383.176 77.9592 382.886 79.5014 382.886 81.2727C382.886 83.0848 383.171 84.6626 383.741 86.0064C384.321 87.3501 385.135 88.3936 386.184 89.1367C387.243 89.8799 388.485 90.2514 389.91 90.2514C390.846 90.2514 391.696 90.0885 392.46 89.7628C393.223 89.437 393.87 88.9688 394.399 88.358C394.928 87.7472 395.305 87.0142 395.529 86.1591H399.133C398.929 87.5436 398.425 88.7906 397.621 89.9002C396.827 90.9996 395.773 91.8751 394.46 92.5266C393.157 93.168 391.64 93.4886 389.91 93.4886ZM407.76 84.4489L407.699 79.9901H408.432L418.693 69.5455H423.152L412.219 80.6009H411.914L407.76 84.4489ZM404.401 93V61.7273H408.005V93H404.401ZM419.304 93L410.142 81.3949L412.708 78.8906L423.885 93H419.304ZM436.658 93.4886C434.399 93.4886 432.449 92.9898 430.81 91.9922C429.181 90.9844 427.924 89.5795 427.038 87.7777C426.163 85.9657 425.725 83.8584 425.725 81.456C425.725 79.0535 426.163 76.9361 427.038 75.1037C427.924 73.2611 429.156 71.8258 430.734 70.7976C432.322 69.7592 434.175 69.2401 436.292 69.2401C437.514 69.2401 438.72 69.4437 439.911 69.8509C441.102 70.258 442.186 70.9197 443.163 71.8359C444.141 72.742 444.919 73.9432 445.5 75.4396C446.08 76.9361 446.37 78.7786 446.37 80.9673V82.4943H428.291V79.3793H442.705C442.705 78.0559 442.441 76.875 441.911 75.8366C441.392 74.7983 440.649 73.9788 439.682 73.3782C438.725 72.7776 437.595 72.4773 436.292 72.4773C434.857 72.4773 433.615 72.8336 432.566 73.5462C431.528 74.2486 430.729 75.1648 430.169 76.2947C429.609 77.4247 429.329 78.6361 429.329 79.929V82.0057C429.329 83.777 429.634 85.2785 430.245 86.5103C430.866 87.7319 431.726 88.6634 432.826 89.3047C433.925 89.9358 435.203 90.2514 436.658 90.2514C437.605 90.2514 438.46 90.1191 439.224 89.8544C439.997 89.5795 440.664 89.1723 441.224 88.6328C441.784 88.0831 442.217 87.401 442.522 86.5866L446.004 87.5639C445.637 88.7448 445.021 89.7831 444.156 90.679C443.291 91.5646 442.222 92.2569 440.949 92.7557C439.677 93.2443 438.247 93.4886 436.658 93.4886ZM462.052 69.5455V72.5994H449.897V69.5455H462.052ZM453.44 63.9261H457.044V86.2812C457.044 87.2992 457.191 88.0627 457.487 88.5717C457.792 89.0705 458.179 89.4065 458.647 89.5795C459.126 89.7424 459.629 89.8239 460.159 89.8239C460.556 89.8239 460.882 89.8035 461.136 89.7628C461.391 89.7119 461.594 89.6712 461.747 89.6406L462.48 92.8778C462.236 92.9695 461.895 93.0611 461.457 93.1527C461.019 93.2545 460.464 93.3054 459.792 93.3054C458.774 93.3054 457.777 93.0865 456.799 92.6488C455.832 92.2111 455.028 91.5443 454.387 90.6484C453.756 89.7526 453.44 88.6226 453.44 87.2585V63.9261Z" fill="#5F7BC9"/>
<path d="M126.45 44.5589C126.493 43.4551 125.632 42.5259 124.529 42.4835L106.542 41.7921C105.438 41.7496 104.509 42.61 104.467 43.7137C104.424 44.8175 105.285 45.7467 106.388 45.7891L122.377 46.4037L121.762 62.3919C121.719 63.4957 122.58 64.4248 123.684 64.4673C124.787 64.5097 125.717 63.6493 125.759 62.5456L126.45 44.5589ZM97.3588 72.2949L125.811 45.9495L123.093 43.0145L94.6412 69.3599L97.3588 72.2949Z" fill="#5F7BC9"/>
<line x1="100" y1="50" x2="67" y2="50" stroke="#5F7BC9" stroke-width="4"/>
<path d="M115 97L64 97" stroke="#5F7BC9" stroke-width="4"/>
<line x1="66" y1="96" x2="66" y2="48" stroke="#5F7BC9" stroke-width="4"/>
<path d="M113 96V70" stroke="#5F7BC9" stroke-width="4" stroke-linecap="round"/>
<path d="M94 50H101" stroke="#5F7BC9" stroke-width="4" stroke-linecap="round"/>
<defs>
<filter id="filter0_d_1_12" x="-9" y="-6" width="541" height="175" filterUnits="userSpaceOnUse" color-interpolation-filters="sRGB">
<feFlood flood-opacity="0" result="BackgroundImageFix"/>
<feColorMatrix in="SourceAlpha" type="matrix" values="0 0 0 0 0 0 0 0 0 0 0 0 0 0 0 0 0 0 127 0" result="hardAlpha"/>
<feMorphology radius="5" operator="dilate" in="SourceAlpha" result="effect1_dropShadow_1_12"/>
<feOffset dx="-5" dy="5"/>
<feGaussianBlur stdDeviation="7.5"/>
<feComposite in2="hardAlpha" operator="out"/>
<feColorMatrix type="matrix" values="0 0 0 0 0.779423 0 0 0 0 0.85087 0 0 0 0 0.927245 0 0 0 0.55 0"/>
<feBlend mode="normal" in2="BackgroundImageFix" result="effect1_dropShadow_1_12"/>
<feBlend mode="normal" in="SourceGraphic" in2="effect1_dropShadow_1_12" result="shape"/>
</filter>
<linearGradient id="paint0_linear_1_12" x1="556" y1="85" x2="-21" y2="-24" gradientUnits="userSpaceOnUse">
<stop stop-color="#EEBFDF"/>
<stop offset="0.502994" stop-color="#7D77EC"/>
<stop offset="1" stop-color="#90F3F4"/>
</linearGradient>
</defs>
</svg>
